<svg width="189" height="161" viewBox="0 0 189 161" fill="none" xmlns="http://www.w3.org/2000/svg">
<path d="M1.804 25V9.49H8.272C9.88533 9.49 11.132 9.84933 12.012 10.568C12.9067 11.272 13.354 12.262 13.354 13.538C13.354 14.374 13.134 15.0927 12.694 15.694C12.254 16.2953 11.6527 16.7353 10.89 17.014C11.7847 17.2487 12.4813 17.6813 12.98 18.312C13.4787 18.9427 13.728 19.742 13.728 20.71C13.728 22.0887 13.266 23.152 12.342 23.9C11.4327 24.6333 10.164 25 8.536 25H1.804ZM4.004 16.266H7.92C10.0613 16.266 11.132 15.43 11.132 13.758C11.132 12.086 10.0613 11.25 7.92 11.25H4.004V16.266ZM4.004 23.24H8.272C10.428 23.24 11.506 22.3673 11.506 20.622C11.506 18.8913 10.428 18.026 8.272 18.026H4.004V23.24ZM19.9901 25.198C19.2421 25.198 18.5748 25.0513 17.9881 24.758C17.4014 24.4647 16.9321 24.0687 16.5801 23.57C16.2428 23.0713 16.0741 22.5067 16.0741 21.876C16.0741 21.084 16.2721 20.4607 16.6681 20.006C17.0788 19.5513 17.7461 19.2213 18.6701 19.016C19.6088 18.8107 20.8701 18.708 22.4541 18.708H23.2021V18.136C23.2021 17.3 23.0261 16.6987 22.6741 16.332C22.3221 15.9653 21.7428 15.782 20.9361 15.782C20.3201 15.782 19.7041 15.8773 19.0881 16.068C18.4721 16.244 17.8414 16.53 17.1961 16.926L16.5141 15.364C17.0714 14.968 17.7681 14.6527 18.6041 14.418C19.4401 14.1833 20.2394 14.066 21.0021 14.066C22.4688 14.066 23.5541 14.418 24.2581 15.122C24.9621 15.8113 25.3141 16.8967 25.3141 18.378V25H23.2241V23.218C22.9601 23.834 22.5494 24.318 21.9921 24.67C21.4348 25.022 20.7674 25.198 19.9901 25.198ZM20.4301 23.614C21.2221 23.614 21.8821 23.3353 22.4101 22.778C22.9381 22.2207 23.2021 21.5167 23.2021 20.666V20.072H22.4761C21.4054 20.072 20.5621 20.1233 19.9461 20.226C19.3448 20.3287 18.9121 20.5047 18.6481 20.754C18.3988 20.9887 18.2741 21.3187 18.2741 21.744C18.2741 22.3013 18.4648 22.756 18.8461 23.108C19.2274 23.4453 19.7554 23.614 20.4301 23.614ZM28.3745 25V14.264H30.5305V16.046C30.8972 15.4007 31.3958 14.9093 32.0265 14.572C32.6718 14.2347 33.3905 14.066 34.1825 14.066C36.7198 14.066 37.9885 15.5033 37.9885 18.378V25H35.7665V18.51C35.7665 17.586 35.5832 16.9113 35.2165 16.486C34.8645 16.0607 34.3072 15.848 33.5445 15.848C32.6498 15.848 31.9312 16.134 31.3885 16.706C30.8605 17.2633 30.5965 18.004 30.5965 18.928V25H28.3745ZM45.6263 25.198C44.2769 25.198 43.2723 24.8533 42.6123 24.164C41.9523 23.4747 41.6223 22.4773 41.6223 21.172V15.98H39.5323V14.264H41.6223V11.03H43.8443V14.264H47.1663V15.98H43.8443V20.996C43.8443 21.7733 44.0056 22.36 44.3283 22.756C44.6656 23.152 45.2083 23.35 45.9563 23.35C46.1909 23.35 46.4183 23.328 46.6383 23.284C46.8583 23.2253 47.0783 23.1593 47.2983 23.086L47.6503 24.758C47.4303 24.89 47.1223 24.9927 46.7263 25.066C46.3449 25.154 45.9783 25.198 45.6263 25.198ZM52.9134 25.198C50.3174 25.198 49.0194 23.7533 49.0194 20.864V14.264H51.2414V20.886C51.2414 21.7513 51.4174 22.3893 51.7694 22.8C52.1214 23.2107 52.6788 23.416 53.4414 23.416C54.2774 23.416 54.9521 23.1373 55.4654 22.58C55.9934 22.0227 56.2574 21.2747 56.2574 20.336V14.264H58.4794V25H56.3234V23.284C55.9714 23.9147 55.5021 24.3913 54.9154 24.714C54.3288 25.0367 53.6614 25.198 52.9134 25.198ZM65.0428 25.198C64.2948 25.198 63.6275 25.0513 63.0408 24.758C62.4542 24.4647 61.9848 24.0687 61.6328 23.57C61.2955 23.0713 61.1268 22.5067 61.1268 21.876C61.1268 21.084 61.3248 20.4607 61.7208 20.006C62.1315 19.5513 62.7988 19.2213 63.7228 19.016C64.6615 18.8107 65.9228 18.708 67.5068 18.708H68.2548V18.136C68.2548 17.3 68.0788 16.6987 67.7268 16.332C67.3748 15.9653 66.7955 15.782 65.9888 15.782C65.3728 15.782 64.7568 15.8773 64.1408 16.068C63.5248 16.244 62.8942 16.53 62.2488 16.926L61.5668 15.364C62.1242 14.968 62.8208 14.6527 63.6568 14.418C64.4928 14.1833 65.2922 14.066 66.0548 14.066C67.5215 14.066 68.6068 14.418 69.3108 15.122C70.0148 15.8113 70.3668 16.8967 70.3668 18.378V25H68.2768V23.218C68.0128 23.834 67.6022 24.318 67.0448 24.67C66.4875 25.022 65.8202 25.198 65.0428 25.198ZM65.4828 23.614C66.2748 23.614 66.9348 23.3353 67.4628 22.778C67.9908 22.2207 68.2548 21.5167 68.2548 20.666V20.072H67.5288C66.4582 20.072 65.6148 20.1233 64.9988 20.226C64.3975 20.3287 63.9648 20.5047 63.7008 20.754C63.4515 20.9887 63.3268 21.3187 63.3268 21.744C63.3268 22.3013 63.5175 22.756 63.8988 23.108C64.2802 23.4453 64.8082 23.614 65.4828 23.614ZM73.4272 25V14.264H75.5832V16.046C75.9499 15.4007 76.4486 14.9093 77.0792 14.572C77.7246 14.2347 78.4432 14.066 79.2352 14.066C81.7726 14.066 83.0412 15.5033 83.0412 18.378V25H80.8192V18.51C80.8192 17.586 80.6359 16.9113 80.2692 16.486C79.9172 16.0607 79.3599 15.848 78.5972 15.848C77.7026 15.848 76.9839 16.134 76.4412 16.706C75.9132 17.2633 75.6492 18.004 75.6492 18.928V25H73.4272Z" fill="white"/>
<path d="M1.27841 75V63.3636H3.03409V68.9205H3.17614L8.05682 63.3636H10.267L5.57386 68.6023L10.2841 75H8.17045L4.40909 69.8011L3.03409 71.3807V75H1.27841ZM14.8026 75.1761C13.9844 75.1761 13.2704 74.9886 12.6605 74.6136C12.0507 74.2386 11.5772 73.714 11.2401 73.0398C10.9029 72.3655 10.7344 71.5777 10.7344 70.6761C10.7344 69.7708 10.9029 68.9792 11.2401 68.3011C11.5772 67.6231 12.0507 67.0966 12.6605 66.7216C13.2704 66.3466 13.9844 66.1591 14.8026 66.1591C15.6207 66.1591 16.3348 66.3466 16.9446 66.7216C17.5545 67.0966 18.0279 67.6231 18.3651 68.3011C18.7022 68.9792 18.8707 69.7708 18.8707 70.6761C18.8707 71.5777 18.7022 72.3655 18.3651 73.0398C18.0279 73.714 17.5545 74.2386 16.9446 74.6136C16.3348 74.9886 15.6207 75.1761 14.8026 75.1761ZM14.8082 73.75C15.3385 73.75 15.7779 73.6098 16.1264 73.3295C16.4749 73.0492 16.7325 72.6761 16.8991 72.2102C17.0696 71.7443 17.1548 71.2311 17.1548 70.6705C17.1548 70.1136 17.0696 69.6023 16.8991 69.1364C16.7325 68.6667 16.4749 68.2898 16.1264 68.0057C15.7779 67.7216 15.3385 67.5795 14.8082 67.5795C14.2741 67.5795 13.831 67.7216 13.4787 68.0057C13.1302 68.2898 12.8707 68.6667 12.7003 69.1364C12.5336 69.6023 12.4503 70.1136 12.4503 70.6705C12.4503 71.2311 12.5336 71.7443 12.7003 72.2102C12.8707 72.6761 13.1302 73.0492 13.4787 73.3295C13.831 73.6098 14.2741 73.75 14.8082 73.75ZM22.4659 69.8182V75H20.767V66.2727H22.3977V67.6932H22.5057C22.7064 67.2311 23.0208 66.8598 23.4489 66.5795C23.8807 66.2992 24.4242 66.1591 25.0795 66.1591C25.6742 66.1591 26.1951 66.2841 26.642 66.5341C27.089 66.7803 27.4356 67.1477 27.6818 67.6364C27.928 68.125 28.0511 68.7292 28.0511 69.4489V75H26.3523V69.6534C26.3523 69.0208 26.1875 68.5265 25.858 68.1705C25.5284 67.8106 25.0758 67.6307 24.5 67.6307C24.1061 67.6307 23.7557 67.7159 23.4489 67.8864C23.1458 68.0568 22.9053 68.3068 22.7273 68.6364C22.553 68.9621 22.4659 69.3561 22.4659 69.8182ZM34.4034 66.2727V67.6364H29.6364V66.2727H34.4034ZM30.9148 64.1818H32.6136V72.4375C32.6136 72.767 32.6629 73.0152 32.7614 73.1818C32.8598 73.3447 32.9867 73.4564 33.142 73.517C33.3011 73.5739 33.4735 73.6023 33.6591 73.6023C33.7955 73.6023 33.9148 73.5928 34.017 73.5739C34.1193 73.5549 34.1989 73.5398 34.2557 73.5284L34.5625 74.9318C34.464 74.9697 34.3239 75.0076 34.142 75.0455C33.9602 75.0871 33.733 75.1098 33.4602 75.1136C33.0133 75.1212 32.5966 75.0417 32.2102 74.875C31.8239 74.7083 31.5114 74.4508 31.2727 74.1023C31.0341 73.7538 30.9148 73.3163 30.9148 72.7898V64.1818ZM38.8224 75.1932C38.2694 75.1932 37.7694 75.0909 37.3224 74.8864C36.8755 74.678 36.5213 74.3769 36.2599 73.983C36.0024 73.589 35.8736 73.1061 35.8736 72.5341C35.8736 72.0417 35.9683 71.6364 36.1577 71.3182C36.3471 71 36.6027 70.7481 36.9247 70.5625C37.2467 70.3769 37.6065 70.2367 38.0043 70.142C38.402 70.0473 38.8073 69.9754 39.2202 69.9261C39.7429 69.8655 40.1671 69.8163 40.4929 69.7784C40.8187 69.7367 41.0554 69.6705 41.2031 69.5795C41.3509 69.4886 41.4247 69.3409 41.4247 69.1364V69.0966C41.4247 68.6004 41.2846 68.2159 41.0043 67.9432C40.7277 67.6705 40.3149 67.5341 39.7656 67.5341C39.1937 67.5341 38.7429 67.661 38.4134 67.9148C38.0876 68.1648 37.8622 68.4432 37.7372 68.75L36.1406 68.3864C36.33 67.8561 36.6065 67.428 36.9702 67.1023C37.3376 66.7727 37.7599 66.5341 38.2372 66.3864C38.7145 66.2348 39.2164 66.1591 39.7429 66.1591C40.0914 66.1591 40.4607 66.2008 40.8509 66.2841C41.2448 66.3636 41.6122 66.5114 41.9531 66.7273C42.2978 66.9432 42.58 67.2519 42.7997 67.6534C43.0194 68.0511 43.1293 68.5682 43.1293 69.2045V75H41.4702V73.8068H41.402C41.2921 74.0265 41.1274 74.2424 40.9077 74.4545C40.688 74.6667 40.4058 74.8428 40.0611 74.983C39.7164 75.1231 39.3035 75.1932 38.8224 75.1932ZM39.1918 73.8295C39.6615 73.8295 40.063 73.7367 40.3963 73.5511C40.7334 73.3655 40.9891 73.1231 41.1634 72.8239C41.3414 72.5208 41.4304 72.197 41.4304 71.8523V70.7273C41.3698 70.7879 41.2524 70.8447 41.0781 70.8977C40.9077 70.947 40.7126 70.9905 40.4929 71.0284C40.2732 71.0625 40.0592 71.0947 39.8509 71.125C39.6425 71.1515 39.4683 71.1742 39.3281 71.1932C38.9986 71.2348 38.6974 71.3049 38.4247 71.4034C38.1558 71.5019 37.9399 71.6439 37.777 71.8295C37.6179 72.0114 37.5384 72.2538 37.5384 72.5568C37.5384 72.9773 37.6937 73.2955 38.0043 73.5114C38.3149 73.7235 38.7107 73.8295 39.1918 73.8295ZM46.9545 72.0398L46.9432 69.9659H47.2386L50.7159 66.2727H52.75L48.7841 70.4773H48.517L46.9545 72.0398ZM45.392 75V63.3636H47.0909V75H45.392ZM50.9034 75L47.7784 70.8523L48.9489 69.6648L52.9886 75H50.9034ZM58.669 75V63.3636H60.4247V68.9205H60.5668L65.4474 63.3636H67.6577L62.9645 68.6023L67.6747 75H65.5611L61.7997 69.8011L60.4247 71.3807V75H58.669ZM71.6974 75.1932C71.1444 75.1932 70.6444 75.0909 70.1974 74.8864C69.7505 74.678 69.3963 74.3769 69.1349 73.983C68.8774 73.589 68.7486 73.1061 68.7486 72.5341C68.7486 72.0417 68.8433 71.6364 69.0327 71.3182C69.2221 71 69.4777 70.7481 69.7997 70.5625C70.1217 70.3769 70.4815 70.2367 70.8793 70.142C71.277 70.0473 71.6823 69.9754 72.0952 69.9261C72.6179 69.8655 73.0421 69.8163 73.3679 69.7784C73.6937 69.7367 73.9304 69.6705 74.0781 69.5795C74.2259 69.4886 74.2997 69.3409 74.2997 69.1364V69.0966C74.2997 68.6004 74.1596 68.2159 73.8793 67.9432C73.6027 67.6705 73.1899 67.5341 72.6406 67.5341C72.0687 67.5341 71.6179 67.661 71.2884 67.9148C70.9626 68.1648 70.7372 68.4432 70.6122 68.75L69.0156 68.3864C69.205 67.8561 69.4815 67.428 69.8452 67.1023C70.2126 66.7727 70.6349 66.5341 71.1122 66.3864C71.5895 66.2348 72.0914 66.1591 72.6179 66.1591C72.9664 66.1591 73.3357 66.2008 73.7259 66.2841C74.1198 66.3636 74.4872 66.5114 74.8281 66.7273C75.1728 66.9432 75.455 67.2519 75.6747 67.6534C75.8944 68.0511 76.0043 68.5682 76.0043 69.2045V75H74.3452V73.8068H74.277C74.1671 74.0265 74.0024 74.2424 73.7827 74.4545C73.563 74.6667 73.2808 74.8428 72.9361 74.983C72.5914 75.1231 72.1785 75.1932 71.6974 75.1932ZM72.0668 73.8295C72.5365 73.8295 72.938 73.7367 73.2713 73.5511C73.6084 73.3655 73.8641 73.1231 74.0384 72.8239C74.2164 72.5208 74.3054 72.197 74.3054 71.8523V70.7273C74.2448 70.7879 74.1274 70.8447 73.9531 70.8977C73.7827 70.947 73.5876 70.9905 73.3679 71.0284C73.1482 71.0625 72.9342 71.0947 72.7259 71.125C72.5175 71.1515 72.3433 71.1742 72.2031 71.1932C71.8736 71.2348 71.5724 71.3049 71.2997 71.4034C71.0308 71.5019 70.8149 71.6439 70.652 71.8295C70.4929 72.0114 70.4134 72.2538 70.4134 72.5568C70.4134 72.9773 70.5687 73.2955 70.8793 73.5114C71.1899 73.7235 71.5857 73.8295 72.0668 73.8295ZM78.267 75V66.2727H79.8977V67.6932H80.0057C80.1875 67.2121 80.4848 66.8371 80.8977 66.5682C81.3106 66.2955 81.8049 66.1591 82.3807 66.1591C82.964 66.1591 83.4527 66.2955 83.8466 66.5682C84.2443 66.8409 84.5379 67.2159 84.7273 67.6932H84.8182C85.0265 67.2273 85.358 66.8561 85.8125 66.5795C86.267 66.2992 86.8087 66.1591 87.4375 66.1591C88.2292 66.1591 88.875 66.4072 89.375 66.9034C89.8788 67.3996 90.1307 68.1477 90.1307 69.1477V75H88.4318V69.3068C88.4318 68.7159 88.2708 68.2879 87.9489 68.0227C87.6269 67.7576 87.2424 67.625 86.7955 67.625C86.2424 67.625 85.8125 67.7955 85.5057 68.1364C85.1989 68.4735 85.0455 68.9072 85.0455 69.4375V75H83.3523V69.1989C83.3523 68.7254 83.2045 68.3447 82.9091 68.0568C82.6136 67.7689 82.2292 67.625 81.7557 67.625C81.4337 67.625 81.1364 67.7102 80.8636 67.8807C80.5947 68.0473 80.3769 68.2803 80.2102 68.5795C80.0473 68.8788 79.9659 69.2254 79.9659 69.6193V75H78.267ZM92.4077 75V66.2727H94.1065V75H92.4077ZM93.2656 64.9261C92.9702 64.9261 92.7164 64.8277 92.5043 64.6307C92.2959 64.4299 92.1918 64.1913 92.1918 63.9148C92.1918 63.6345 92.2959 63.3958 92.5043 63.1989C92.7164 62.9981 92.9702 62.8977 93.2656 62.8977C93.5611 62.8977 93.813 62.9981 94.0213 63.1989C94.2334 63.3958 94.3395 63.6345 94.3395 63.9148C94.3395 64.1913 94.2334 64.4299 94.0213 64.6307C93.813 64.8277 93.5611 64.9261 93.2656 64.9261Z" fill="#F2F2F2"/>
<path d="M1.27841 115V103.364H3.03409V113.489H8.30682V115H1.27841ZM12.7131 115.193C12.16 115.193 11.66 115.091 11.2131 114.886C10.7661 114.678 10.4119 114.377 10.1506 113.983C9.89299 113.589 9.7642 113.106 9.7642 112.534C9.7642 112.042 9.8589 111.636 10.0483 111.318C10.2377 111 10.4934 110.748 10.8153 110.562C11.1373 110.377 11.4972 110.237 11.8949 110.142C12.2926 110.047 12.6979 109.975 13.1108 109.926C13.6335 109.866 14.0578 109.816 14.3835 109.778C14.7093 109.737 14.946 109.67 15.0938 109.58C15.2415 109.489 15.3153 109.341 15.3153 109.136V109.097C15.3153 108.6 15.1752 108.216 14.8949 107.943C14.6184 107.67 14.2055 107.534 13.6562 107.534C13.0843 107.534 12.6335 107.661 12.304 107.915C11.9782 108.165 11.7528 108.443 11.6278 108.75L10.0312 108.386C10.2206 107.856 10.4972 107.428 10.8608 107.102C11.2282 106.773 11.6506 106.534 12.1278 106.386C12.6051 106.235 13.107 106.159 13.6335 106.159C13.982 106.159 14.3513 106.201 14.7415 106.284C15.1354 106.364 15.5028 106.511 15.8438 106.727C16.1884 106.943 16.4706 107.252 16.6903 107.653C16.91 108.051 17.0199 108.568 17.0199 109.205V115H15.3608V113.807H15.2926C15.1828 114.027 15.018 114.242 14.7983 114.455C14.5786 114.667 14.2964 114.843 13.9517 114.983C13.607 115.123 13.1941 115.193 12.7131 115.193ZM13.0824 113.83C13.5521 113.83 13.9536 113.737 14.2869 113.551C14.6241 113.366 14.8797 113.123 15.054 112.824C15.232 112.521 15.321 112.197 15.321 111.852V110.727C15.2604 110.788 15.143 110.845 14.9688 110.898C14.7983 110.947 14.6032 110.991 14.3835 111.028C14.1638 111.062 13.9498 111.095 13.7415 111.125C13.5331 111.152 13.3589 111.174 13.2188 111.193C12.8892 111.235 12.5881 111.305 12.3153 111.403C12.0464 111.502 11.8305 111.644 11.6676 111.83C11.5085 112.011 11.429 112.254 11.429 112.557C11.429 112.977 11.5843 113.295 11.8949 113.511C12.2055 113.723 12.6013 113.83 13.0824 113.83ZM19.2827 118.273V106.273H20.9418V107.688H21.0838C21.1823 107.506 21.3243 107.295 21.5099 107.057C21.6955 106.818 21.9531 106.61 22.2827 106.432C22.6122 106.25 23.0478 106.159 23.5895 106.159C24.294 106.159 24.9228 106.337 25.4759 106.693C26.0289 107.049 26.4626 107.562 26.777 108.233C27.0952 108.903 27.2543 109.71 27.2543 110.653C27.2543 111.597 27.0971 112.405 26.7827 113.08C26.4683 113.75 26.0365 114.267 25.4872 114.631C24.938 114.991 24.3111 115.17 23.6065 115.17C23.0762 115.17 22.6425 115.081 22.3054 114.903C21.9721 114.725 21.7107 114.517 21.5213 114.278C21.3319 114.04 21.1861 113.828 21.0838 113.642H20.9815V118.273H19.2827ZM20.9474 110.636C20.9474 111.25 21.0365 111.788 21.2145 112.25C21.3925 112.712 21.6501 113.074 21.9872 113.335C22.3243 113.593 22.7372 113.722 23.2259 113.722C23.7334 113.722 24.1577 113.587 24.4986 113.318C24.8395 113.045 25.0971 112.676 25.2713 112.21C25.4493 111.744 25.5384 111.22 25.5384 110.636C25.5384 110.061 25.4512 109.544 25.277 109.085C25.1065 108.627 24.849 108.265 24.5043 108C24.1634 107.735 23.7372 107.602 23.2259 107.602C22.7334 107.602 22.3168 107.729 21.9759 107.983C21.6387 108.237 21.383 108.591 21.2088 109.045C21.0346 109.5 20.9474 110.03 20.9474 110.636ZM32.8338 115.176C32.0156 115.176 31.3016 114.989 30.6918 114.614C30.0819 114.239 29.6084 113.714 29.2713 113.04C28.9342 112.366 28.7656 111.578 28.7656 110.676C28.7656 109.771 28.9342 108.979 29.2713 108.301C29.6084 107.623 30.0819 107.097 30.6918 106.722C31.3016 106.347 32.0156 106.159 32.8338 106.159C33.652 106.159 34.366 106.347 34.9759 106.722C35.5857 107.097 36.0592 107.623 36.3963 108.301C36.7334 108.979 36.902 109.771 36.902 110.676C36.902 111.578 36.7334 112.366 36.3963 113.04C36.0592 113.714 35.5857 114.239 34.9759 114.614C34.366 114.989 33.652 115.176 32.8338 115.176ZM32.8395 113.75C33.3698 113.75 33.8092 113.61 34.1577 113.33C34.5062 113.049 34.7637 112.676 34.9304 112.21C35.1009 111.744 35.1861 111.231 35.1861 110.67C35.1861 110.114 35.1009 109.602 34.9304 109.136C34.7637 108.667 34.5062 108.29 34.1577 108.006C33.8092 107.722 33.3698 107.58 32.8395 107.58C32.3054 107.58 31.8622 107.722 31.5099 108.006C31.1615 108.29 30.902 108.667 30.7315 109.136C30.5649 109.602 30.4815 110.114 30.4815 110.67C30.4815 111.231 30.5649 111.744 30.7315 112.21C30.902 112.676 31.1615 113.049 31.5099 113.33C31.8622 113.61 32.3054 113.75 32.8395 113.75ZM38.7983 115V106.273H40.4403V107.659H40.5312C40.6903 107.189 40.9706 106.82 41.3722 106.551C41.7775 106.278 42.2358 106.142 42.7472 106.142C42.8532 106.142 42.9782 106.146 43.1222 106.153C43.2699 106.161 43.3854 106.17 43.4688 106.182V107.807C43.4006 107.788 43.2794 107.767 43.1051 107.744C42.9309 107.718 42.7566 107.705 42.5824 107.705C42.1809 107.705 41.8229 107.79 41.5085 107.96C41.1979 108.127 40.9517 108.36 40.7699 108.659C40.5881 108.955 40.4972 109.292 40.4972 109.67V115H38.7983ZM47.4006 115.193C46.8475 115.193 46.3475 115.091 45.9006 114.886C45.4536 114.678 45.0994 114.377 44.8381 113.983C44.5805 113.589 44.4517 113.106 44.4517 112.534C44.4517 112.042 44.5464 111.636 44.7358 111.318C44.9252 111 45.1809 110.748 45.5028 110.562C45.8248 110.377 46.1847 110.237 46.5824 110.142C46.9801 110.047 47.3854 109.975 47.7983 109.926C48.321 109.866 48.7453 109.816 49.071 109.778C49.3968 109.737 49.6335 109.67 49.7812 109.58C49.929 109.489 50.0028 109.341 50.0028 109.136V109.097C50.0028 108.6 49.8627 108.216 49.5824 107.943C49.3059 107.67 48.893 107.534 48.3438 107.534C47.7718 107.534 47.321 107.661 46.9915 107.915C46.6657 108.165 46.4403 108.443 46.3153 108.75L44.7188 108.386C44.9081 107.856 45.1847 107.428 45.5483 107.102C45.9157 106.773 46.3381 106.534 46.8153 106.386C47.2926 106.235 47.7945 106.159 48.321 106.159C48.6695 106.159 49.0388 106.201 49.429 106.284C49.8229 106.364 50.1903 106.511 50.5312 106.727C50.8759 106.943 51.1581 107.252 51.3778 107.653C51.5975 108.051 51.7074 108.568 51.7074 109.205V115H50.0483V113.807H49.9801C49.8703 114.027 49.7055 114.242 49.4858 114.455C49.2661 114.667 48.9839 114.843 48.6392 114.983C48.2945 115.123 47.8816 115.193 47.4006 115.193ZM47.7699 113.83C48.2396 113.83 48.6411 113.737 48.9744 113.551C49.3116 113.366 49.5672 113.123 49.7415 112.824C49.9195 112.521 50.0085 112.197 50.0085 111.852V110.727C49.9479 110.788 49.8305 110.845 49.6562 110.898C49.4858 110.947 49.2907 110.991 49.071 111.028C48.8513 111.062 48.6373 111.095 48.429 111.125C48.2206 111.152 48.0464 111.174 47.9062 111.193C47.5767 111.235 47.2756 111.305 47.0028 111.403C46.7339 111.502 46.518 111.644 46.3551 111.83C46.196 112.011 46.1165 112.254 46.1165 112.557C46.1165 112.977 46.2718 113.295 46.5824 113.511C46.893 113.723 47.2888 113.83 47.7699 113.83ZM55.669 109.818V115H53.9702V106.273H55.6009V107.693H55.7088C55.9096 107.231 56.224 106.86 56.652 106.58C57.0838 106.299 57.6274 106.159 58.2827 106.159C58.8774 106.159 59.3982 106.284 59.8452 106.534C60.2921 106.78 60.6387 107.148 60.8849 107.636C61.1312 108.125 61.2543 108.729 61.2543 109.449V115H59.5554V109.653C59.5554 109.021 59.3906 108.527 59.0611 108.17C58.7315 107.811 58.2789 107.631 57.7031 107.631C57.3092 107.631 56.9588 107.716 56.652 107.886C56.349 108.057 56.1084 108.307 55.9304 108.636C55.7562 108.962 55.669 109.356 55.669 109.818ZM67.9034 115V103.364H72.0511C72.9564 103.364 73.7064 103.528 74.3011 103.858C74.8958 104.187 75.3409 104.638 75.6364 105.21C75.9318 105.778 76.0795 106.419 76.0795 107.131C76.0795 107.847 75.9299 108.491 75.6307 109.062C75.3352 109.631 74.8883 110.081 74.2898 110.415C73.6951 110.744 72.947 110.909 72.0455 110.909H69.1932V109.42H71.8864C72.4583 109.42 72.9223 109.322 73.2784 109.125C73.6345 108.924 73.8958 108.652 74.0625 108.307C74.2292 107.962 74.3125 107.57 74.3125 107.131C74.3125 106.691 74.2292 106.301 74.0625 105.96C73.8958 105.619 73.6326 105.352 73.2727 105.159C72.9167 104.966 72.447 104.869 71.8636 104.869H69.6591V115H67.9034ZM81.6534 115.176C80.7936 115.176 80.053 114.992 79.4318 114.625C78.8144 114.254 78.3371 113.733 78 113.062C77.6667 112.388 77.5 111.598 77.5 110.693C77.5 109.799 77.6667 109.011 78 108.33C78.3371 107.648 78.8068 107.116 79.4091 106.733C80.0152 106.35 80.7235 106.159 81.5341 106.159C82.0265 106.159 82.5038 106.241 82.9659 106.403C83.428 106.566 83.8428 106.822 84.2102 107.17C84.5777 107.519 84.8674 107.972 85.0795 108.528C85.2917 109.081 85.3977 109.754 85.3977 110.545V111.148H78.4602V109.875H83.733C83.733 109.428 83.642 109.032 83.4602 108.688C83.2784 108.339 83.0227 108.064 82.6932 107.864C82.3674 107.663 81.9848 107.562 81.5455 107.562C81.0682 107.562 80.6515 107.68 80.2955 107.915C79.9432 108.146 79.6705 108.449 79.4773 108.824C79.2879 109.195 79.1932 109.598 79.1932 110.034V111.028C79.1932 111.612 79.2955 112.108 79.5 112.517C79.7083 112.926 79.9981 113.239 80.3693 113.455C80.7405 113.667 81.1742 113.773 81.6705 113.773C81.9924 113.773 82.286 113.727 82.5511 113.636C82.8163 113.542 83.0455 113.402 83.2386 113.216C83.4318 113.03 83.5795 112.801 83.6818 112.528L85.2898 112.818C85.161 113.292 84.9299 113.706 84.5966 114.062C84.267 114.415 83.8523 114.689 83.3523 114.886C82.8561 115.08 82.2898 115.176 81.6534 115.176ZM87.2827 115V106.273H88.9134V107.693H89.0213C89.2031 107.212 89.5005 106.837 89.9134 106.568C90.3262 106.295 90.8205 106.159 91.3963 106.159C91.9796 106.159 92.4683 106.295 92.8622 106.568C93.2599 106.841 93.5535 107.216 93.7429 107.693H93.8338C94.0421 107.227 94.3736 106.856 94.8281 106.58C95.2827 106.299 95.8243 106.159 96.4531 106.159C97.2448 106.159 97.8906 106.407 98.3906 106.903C98.8944 107.4 99.1463 108.148 99.1463 109.148V115H97.4474V109.307C97.4474 108.716 97.2865 108.288 96.9645 108.023C96.6425 107.758 96.258 107.625 95.8111 107.625C95.258 107.625 94.8281 107.795 94.5213 108.136C94.2145 108.473 94.0611 108.907 94.0611 109.438V115H92.3679V109.199C92.3679 108.725 92.2202 108.345 91.9247 108.057C91.6293 107.769 91.2448 107.625 90.7713 107.625C90.4493 107.625 90.152 107.71 89.8793 107.881C89.6103 108.047 89.3925 108.28 89.2259 108.58C89.063 108.879 88.9815 109.225 88.9815 109.619V115H87.2827ZM101.56 115V103.364H103.259V107.688H103.361C103.459 107.506 103.601 107.295 103.787 107.057C103.973 106.818 104.23 106.61 104.56 106.432C104.889 106.25 105.325 106.159 105.866 106.159C106.571 106.159 107.2 106.337 107.753 106.693C108.306 107.049 108.74 107.562 109.054 108.233C109.372 108.903 109.531 109.71 109.531 110.653C109.531 111.597 109.374 112.405 109.06 113.08C108.745 113.75 108.313 114.267 107.764 114.631C107.215 114.991 106.588 115.17 105.884 115.17C105.353 115.17 104.92 115.081 104.582 114.903C104.249 114.725 103.988 114.517 103.798 114.278C103.609 114.04 103.463 113.828 103.361 113.642H103.219V115H101.56ZM103.224 110.636C103.224 111.25 103.313 111.788 103.491 112.25C103.67 112.712 103.927 113.074 104.264 113.335C104.601 113.593 105.014 113.722 105.503 113.722C106.01 113.722 106.435 113.587 106.776 113.318C107.116 113.045 107.374 112.676 107.548 112.21C107.726 111.744 107.815 111.22 107.815 110.636C107.815 110.061 107.728 109.544 107.554 109.085C107.384 108.627 107.126 108.265 106.781 108C106.44 107.735 106.014 107.602 105.503 107.602C105.01 107.602 104.594 107.729 104.253 107.983C103.916 108.237 103.66 108.591 103.486 109.045C103.312 109.5 103.224 110.03 103.224 110.636ZM113.979 115.193C113.426 115.193 112.926 115.091 112.479 114.886C112.032 114.678 111.678 114.377 111.416 113.983C111.159 113.589 111.03 113.106 111.03 112.534C111.03 112.042 111.125 111.636 111.314 111.318C111.503 111 111.759 110.748 112.081 110.562C112.403 110.377 112.763 110.237 113.161 110.142C113.558 110.047 113.964 109.975 114.376 109.926C114.899 109.866 115.323 109.816 115.649 109.778C115.975 109.737 116.212 109.67 116.359 109.58C116.507 109.489 116.581 109.341 116.581 109.136V109.097C116.581 108.6 116.441 108.216 116.161 107.943C115.884 107.67 115.471 107.534 114.922 107.534C114.35 107.534 113.899 107.661 113.57 107.915C113.244 108.165 113.018 108.443 112.893 108.75L111.297 108.386C111.486 107.856 111.763 107.428 112.126 107.102C112.494 106.773 112.916 106.534 113.393 106.386C113.871 106.235 114.373 106.159 114.899 106.159C115.248 106.159 115.617 106.201 116.007 106.284C116.401 106.364 116.768 106.511 117.109 106.727C117.454 106.943 117.736 107.252 117.956 107.653C118.176 108.051 118.286 108.568 118.286 109.205V115H116.626V113.807H116.558C116.448 114.027 116.284 114.242 116.064 114.455C115.844 114.667 115.562 114.843 115.217 114.983C114.873 115.123 114.46 115.193 113.979 115.193ZM114.348 113.83C114.818 113.83 115.219 113.737 115.553 113.551C115.89 113.366 116.145 113.123 116.32 112.824C116.498 112.521 116.587 112.197 116.587 111.852V110.727C116.526 110.788 116.409 110.845 116.234 110.898C116.064 110.947 115.869 110.991 115.649 111.028C115.429 111.062 115.215 111.095 115.007 111.125C114.799 111.152 114.625 111.174 114.484 111.193C114.155 111.235 113.854 111.305 113.581 111.403C113.312 111.502 113.096 111.644 112.933 111.83C112.774 112.011 112.695 112.254 112.695 112.557C112.695 112.977 112.85 113.295 113.161 113.511C113.471 113.723 113.867 113.83 114.348 113.83ZM120.548 106.273H122.247V115.568C122.247 116.152 122.141 116.644 121.929 117.045C121.721 117.447 121.41 117.752 120.997 117.96C120.588 118.169 120.082 118.273 119.48 118.273C119.42 118.273 119.363 118.273 119.31 118.273C119.253 118.273 119.194 118.271 119.134 118.267V116.807C119.187 116.807 119.234 116.807 119.276 116.807C119.313 116.807 119.357 116.807 119.406 116.807C119.808 116.807 120.098 116.699 120.276 116.483C120.457 116.271 120.548 115.962 120.548 115.557V106.273ZM121.389 104.926C121.094 104.926 120.84 104.828 120.628 104.631C120.42 104.43 120.315 104.191 120.315 103.915C120.315 103.634 120.42 103.396 120.628 103.199C120.84 102.998 121.094 102.898 121.389 102.898C121.685 102.898 121.937 102.998 122.145 103.199C122.357 103.396 122.463 103.634 122.463 103.915C122.463 104.191 122.357 104.43 122.145 104.631C121.937 104.828 121.685 104.926 121.389 104.926ZM127.072 115.193C126.519 115.193 126.019 115.091 125.572 114.886C125.125 114.678 124.771 114.377 124.51 113.983C124.252 113.589 124.124 113.106 124.124 112.534C124.124 112.042 124.218 111.636 124.408 111.318C124.597 111 124.853 110.748 125.175 110.562C125.497 110.377 125.857 110.237 126.254 110.142C126.652 110.047 127.057 109.975 127.47 109.926C127.993 109.866 128.417 109.816 128.743 109.778C129.069 109.737 129.305 109.67 129.453 109.58C129.601 109.489 129.675 109.341 129.675 109.136V109.097C129.675 108.6 129.535 108.216 129.254 107.943C128.978 107.67 128.565 107.534 128.016 107.534C127.444 107.534 126.993 107.661 126.663 107.915C126.338 108.165 126.112 108.443 125.987 108.75L124.391 108.386C124.58 107.856 124.857 107.428 125.22 107.102C125.588 106.773 126.01 106.534 126.487 106.386C126.964 106.235 127.466 106.159 127.993 106.159C128.341 106.159 128.711 106.201 129.101 106.284C129.495 106.364 129.862 106.511 130.203 106.727C130.548 106.943 130.83 107.252 131.05 107.653C131.269 108.051 131.379 108.568 131.379 109.205V115H129.72V113.807H129.652C129.542 114.027 129.377 114.242 129.158 114.455C128.938 114.667 128.656 114.843 128.311 114.983C127.966 115.123 127.554 115.193 127.072 115.193ZM127.442 113.83C127.911 113.83 128.313 113.737 128.646 113.551C128.983 113.366 129.239 113.123 129.413 112.824C129.591 112.521 129.68 112.197 129.68 111.852V110.727C129.62 110.788 129.502 110.845 129.328 110.898C129.158 110.947 128.963 110.991 128.743 111.028C128.523 111.062 128.309 111.095 128.101 111.125C127.893 111.152 127.718 111.174 127.578 111.193C127.249 111.235 126.947 111.305 126.675 111.403C126.406 111.502 126.19 111.644 126.027 111.83C125.868 112.011 125.788 112.254 125.788 112.557C125.788 112.977 125.944 113.295 126.254 113.511C126.565 113.723 126.961 113.83 127.442 113.83ZM135.205 112.04L135.193 109.966H135.489L138.966 106.273H141L137.034 110.477H136.767L135.205 112.04ZM133.642 115V103.364H135.341V115H133.642ZM139.153 115L136.028 110.852L137.199 109.665L141.239 115H139.153ZM145.088 115.193C144.535 115.193 144.035 115.091 143.588 114.886C143.141 114.678 142.787 114.377 142.526 113.983C142.268 113.589 142.139 113.106 142.139 112.534C142.139 112.042 142.234 111.636 142.423 111.318C142.613 111 142.868 110.748 143.19 110.562C143.512 110.377 143.872 110.237 144.27 110.142C144.668 110.047 145.073 109.975 145.486 109.926C146.009 109.866 146.433 109.816 146.759 109.778C147.084 109.737 147.321 109.67 147.469 109.58C147.616 109.489 147.69 109.341 147.69 109.136V109.097C147.69 108.6 147.55 108.216 147.27 107.943C146.993 107.67 146.58 107.534 146.031 107.534C145.459 107.534 145.009 107.661 144.679 107.915C144.353 108.165 144.128 108.443 144.003 108.75L142.406 108.386C142.596 107.856 142.872 107.428 143.236 107.102C143.603 106.773 144.026 106.534 144.503 106.386C144.98 106.235 145.482 106.159 146.009 106.159C146.357 106.159 146.726 106.201 147.116 106.284C147.51 106.364 147.878 106.511 148.219 106.727C148.563 106.943 148.846 107.252 149.065 107.653C149.285 108.051 149.395 108.568 149.395 109.205V115H147.736V113.807H147.668C147.558 114.027 147.393 114.242 147.173 114.455C146.954 114.667 146.671 114.843 146.327 114.983C145.982 115.123 145.569 115.193 145.088 115.193ZM145.457 113.83C145.927 113.83 146.329 113.737 146.662 113.551C146.999 113.366 147.255 113.123 147.429 112.824C147.607 112.521 147.696 112.197 147.696 111.852V110.727C147.635 110.788 147.518 110.845 147.344 110.898C147.173 110.947 146.978 110.991 146.759 111.028C146.539 111.062 146.325 111.095 146.116 111.125C145.908 111.152 145.734 111.174 145.594 111.193C145.264 111.235 144.963 111.305 144.69 111.403C144.421 111.502 144.205 111.644 144.043 111.83C143.884 112.011 143.804 112.254 143.804 112.557C143.804 112.977 143.959 113.295 144.27 113.511C144.58 113.723 144.976 113.83 145.457 113.83ZM153.357 109.818V115H151.658V106.273H153.288V107.693H153.396C153.597 107.231 153.911 106.86 154.339 106.58C154.771 106.299 155.315 106.159 155.97 106.159C156.565 106.159 157.086 106.284 157.533 106.534C157.98 106.78 158.326 107.148 158.572 107.636C158.819 108.125 158.942 108.729 158.942 109.449V115H157.243V109.653C157.243 109.021 157.078 108.527 156.749 108.17C156.419 107.811 155.966 107.631 155.391 107.631C154.997 107.631 154.646 107.716 154.339 107.886C154.036 108.057 153.796 108.307 153.618 108.636C153.444 108.962 153.357 109.356 153.357 109.818Z" fill="#F2F2F2"/>
<path d="M1.27841 155V143.364H3.03409V148.92H3.17614L8.05682 143.364H10.267L5.57386 148.602L10.2841 155H8.17045L4.40909 149.801L3.03409 151.381V155H1.27841ZM14.8878 155.176C14.0279 155.176 13.2874 154.992 12.6662 154.625C12.0488 154.254 11.5715 153.733 11.2344 153.062C10.901 152.388 10.7344 151.598 10.7344 150.693C10.7344 149.799 10.901 149.011 11.2344 148.33C11.5715 147.648 12.0412 147.116 12.6435 146.733C13.2495 146.35 13.9579 146.159 14.7685 146.159C15.2609 146.159 15.7382 146.241 16.2003 146.403C16.6624 146.566 17.0772 146.822 17.4446 147.17C17.812 147.519 18.1018 147.972 18.3139 148.528C18.526 149.081 18.6321 149.754 18.6321 150.545V151.148H11.6946V149.875H16.9673C16.9673 149.428 16.8764 149.032 16.6946 148.688C16.5128 148.339 16.2571 148.064 15.9276 147.864C15.6018 147.663 15.2192 147.562 14.7798 147.562C14.3026 147.562 13.8859 147.68 13.5298 147.915C13.1776 148.146 12.9048 148.449 12.7116 148.824C12.5223 149.195 12.4276 149.598 12.4276 150.034V151.028C12.4276 151.612 12.5298 152.108 12.7344 152.517C12.9427 152.926 13.2325 153.239 13.6037 153.455C13.9749 153.667 14.4086 153.773 14.9048 153.773C15.2268 153.773 15.5204 153.727 15.7855 153.636C16.0507 153.542 16.2798 153.402 16.473 153.216C16.6662 153.03 16.8139 152.801 16.9162 152.528L18.5241 152.818C18.3954 153.292 18.1643 153.706 17.831 154.062C17.5014 154.415 17.0866 154.689 16.5866 154.886C16.0904 155.08 15.5241 155.176 14.8878 155.176ZM20.6534 155V143.364H22.3523V147.688H22.4545C22.553 147.506 22.6951 147.295 22.8807 147.057C23.0663 146.818 23.3239 146.61 23.6534 146.432C23.983 146.25 24.4186 146.159 24.9602 146.159C25.6648 146.159 26.2936 146.337 26.8466 146.693C27.3996 147.049 27.8333 147.562 28.1477 148.233C28.4659 148.903 28.625 149.71 28.625 150.653C28.625 151.597 28.4678 152.405 28.1534 153.08C27.839 153.75 27.4072 154.267 26.858 154.631C26.3087 154.991 25.6818 155.17 24.9773 155.17C24.447 155.17 24.0133 155.081 23.6761 154.903C23.3428 154.725 23.0814 154.517 22.892 154.278C22.7027 154.04 22.5568 153.828 22.4545 153.642H22.3125V155H20.6534ZM22.3182 150.636C22.3182 151.25 22.4072 151.788 22.5852 152.25C22.7633 152.712 23.0208 153.074 23.358 153.335C23.6951 153.593 24.108 153.722 24.5966 153.722C25.1042 153.722 25.5284 153.587 25.8693 153.318C26.2102 153.045 26.4678 152.676 26.642 152.21C26.8201 151.744 26.9091 151.22 26.9091 150.636C26.9091 150.061 26.822 149.544 26.6477 149.085C26.4773 148.627 26.2197 148.265 25.875 148C25.5341 147.735 25.108 147.602 24.5966 147.602C24.1042 147.602 23.6875 147.729 23.3466 147.983C23.0095 148.237 22.7538 148.591 22.5795 149.045C22.4053 149.5 22.3182 150.03 22.3182 150.636ZM30.5327 155V146.273H32.2315V155H30.5327ZM31.3906 144.926C31.0952 144.926 30.8414 144.828 30.6293 144.631C30.4209 144.43 30.3168 144.191 30.3168 143.915C30.3168 143.634 30.4209 143.396 30.6293 143.199C30.8414 142.998 31.0952 142.898 31.3906 142.898C31.6861 142.898 31.938 142.998 32.1463 143.199C32.3584 143.396 32.4645 143.634 32.4645 143.915C32.4645 144.191 32.3584 144.43 32.1463 144.631C31.938 144.828 31.6861 144.926 31.3906 144.926ZM34.517 146.273H36.2159V155.568C36.2159 156.152 36.1098 156.644 35.8977 157.045C35.6894 157.447 35.3788 157.752 34.9659 157.96C34.5568 158.169 34.0511 158.273 33.4489 158.273C33.3883 158.273 33.3314 158.273 33.2784 158.273C33.2216 158.273 33.1629 158.271 33.1023 158.267V156.807C33.1553 156.807 33.2027 156.807 33.2443 156.807C33.2822 156.807 33.3258 156.807 33.375 156.807C33.7765 156.807 34.0663 156.699 34.2443 156.483C34.4261 156.271 34.517 155.962 34.517 155.557V146.273ZM35.358 144.926C35.0625 144.926 34.8087 144.828 34.5966 144.631C34.3883 144.43 34.2841 144.191 34.2841 143.915C34.2841 143.634 34.3883 143.396 34.5966 143.199C34.8087 142.998 35.0625 142.898 35.358 142.898C35.6534 142.898 35.9053 142.998 36.1136 143.199C36.3258 143.396 36.4318 143.634 36.4318 143.915C36.4318 144.191 36.3258 144.43 36.1136 144.631C35.9053 144.828 35.6534 144.926 35.358 144.926ZM41.0412 155.193C40.4882 155.193 39.9882 155.091 39.5412 154.886C39.0942 154.678 38.7401 154.377 38.4787 153.983C38.2211 153.589 38.0923 153.106 38.0923 152.534C38.0923 152.042 38.187 151.636 38.3764 151.318C38.5658 151 38.8215 150.748 39.1435 150.562C39.4654 150.377 39.8253 150.237 40.223 150.142C40.6207 150.047 41.026 149.975 41.4389 149.926C41.9616 149.866 42.3859 149.816 42.7116 149.778C43.0374 149.737 43.2741 149.67 43.4219 149.58C43.5696 149.489 43.6435 149.341 43.6435 149.136V149.097C43.6435 148.6 43.5033 148.216 43.223 147.943C42.9465 147.67 42.5336 147.534 41.9844 147.534C41.4124 147.534 40.9616 147.661 40.6321 147.915C40.3063 148.165 40.081 148.443 39.956 148.75L38.3594 148.386C38.5488 147.856 38.8253 147.428 39.1889 147.102C39.5563 146.773 39.9787 146.534 40.456 146.386C40.9332 146.235 41.4351 146.159 41.9616 146.159C42.3101 146.159 42.6795 146.201 43.0696 146.284C43.4635 146.364 43.831 146.511 44.1719 146.727C44.5166 146.943 44.7988 147.252 45.0185 147.653C45.2382 148.051 45.348 148.568 45.348 149.205V155H43.6889V153.807H43.6207C43.5109 154.027 43.3461 154.242 43.1264 154.455C42.9067 154.667 42.6245 154.843 42.2798 154.983C41.9351 155.123 41.5223 155.193 41.0412 155.193ZM41.4105 153.83C41.8802 153.83 42.2817 153.737 42.6151 153.551C42.9522 153.366 43.2079 153.123 43.3821 152.824C43.5601 152.521 43.6491 152.197 43.6491 151.852V150.727C43.5885 150.788 43.4711 150.845 43.2969 150.898C43.1264 150.947 42.9313 150.991 42.7116 151.028C42.492 151.062 42.2779 151.095 42.0696 151.125C41.8613 151.152 41.687 151.174 41.5469 151.193C41.2173 151.235 40.9162 151.305 40.6435 151.403C40.3745 151.502 40.1586 151.644 39.9957 151.83C39.8366 152.011 39.7571 152.254 39.7571 152.557C39.7571 152.977 39.9124 153.295 40.223 153.511C40.5336 153.723 40.9295 153.83 41.4105 153.83ZM49.1733 152.04L49.1619 149.966H49.4574L52.9347 146.273H54.9688L51.0028 150.477H50.7358L49.1733 152.04ZM47.6108 155V143.364H49.3097V155H47.6108ZM53.1222 155L49.9972 150.852L51.1676 149.665L55.2074 155H53.1222ZM59.0568 155.193C58.5038 155.193 58.0038 155.091 57.5568 154.886C57.1098 154.678 56.7557 154.377 56.4943 153.983C56.2367 153.589 56.108 153.106 56.108 152.534C56.108 152.042 56.2027 151.636 56.392 151.318C56.5814 151 56.8371 150.748 57.1591 150.562C57.4811 150.377 57.8409 150.237 58.2386 150.142C58.6364 150.047 59.0417 149.975 59.4545 149.926C59.9773 149.866 60.4015 149.816 60.7273 149.778C61.053 149.737 61.2898 149.67 61.4375 149.58C61.5852 149.489 61.6591 149.341 61.6591 149.136V149.097C61.6591 148.6 61.5189 148.216 61.2386 147.943C60.9621 147.67 60.5492 147.534 60 147.534C59.428 147.534 58.9773 147.661 58.6477 147.915C58.322 148.165 58.0966 148.443 57.9716 148.75L56.375 148.386C56.5644 147.856 56.8409 147.428 57.2045 147.102C57.572 146.773 57.9943 146.534 58.4716 146.386C58.9489 146.235 59.4508 146.159 59.9773 146.159C60.3258 146.159 60.6951 146.201 61.0852 146.284C61.4792 146.364 61.8466 146.511 62.1875 146.727C62.5322 146.943 62.8144 147.252 63.0341 147.653C63.2538 148.051 63.3636 148.568 63.3636 149.205V155H61.7045V153.807H61.6364C61.5265 154.027 61.3617 154.242 61.142 154.455C60.9223 154.667 60.6402 154.843 60.2955 154.983C59.9508 155.123 59.5379 155.193 59.0568 155.193ZM59.4261 153.83C59.8958 153.83 60.2973 153.737 60.6307 153.551C60.9678 153.366 61.2235 153.123 61.3977 152.824C61.5758 152.521 61.6648 152.197 61.6648 151.852V150.727C61.6042 150.788 61.4867 150.845 61.3125 150.898C61.142 150.947 60.947 150.991 60.7273 151.028C60.5076 151.062 60.2936 151.095 60.0852 151.125C59.8769 151.152 59.7027 151.174 59.5625 151.193C59.233 151.235 58.9318 151.305 58.6591 151.403C58.3902 151.502 58.1742 151.644 58.0114 151.83C57.8523 152.011 57.7727 152.254 57.7727 152.557C57.7727 152.977 57.928 153.295 58.2386 153.511C58.5492 153.723 58.9451 153.83 59.4261 153.83ZM67.3253 149.818V155H65.6264V146.273H67.2571V147.693H67.3651C67.5658 147.231 67.8802 146.86 68.3082 146.58C68.7401 146.299 69.2836 146.159 69.9389 146.159C70.5336 146.159 71.0545 146.284 71.5014 146.534C71.9484 146.78 72.295 147.148 72.5412 147.636C72.7874 148.125 72.9105 148.729 72.9105 149.449V155H71.2116V149.653C71.2116 149.021 71.0469 148.527 70.7173 148.17C70.3878 147.811 69.9351 147.631 69.3594 147.631C68.9654 147.631 68.6151 147.716 68.3082 147.886C68.0052 148.057 67.7647 148.307 67.5866 148.636C67.4124 148.962 67.3253 149.356 67.3253 149.818Z" fill="#F2F2F2"/>
</svg>
