<svg width="8" height="14" viewBox="0 0 8 14" fill="none" xmlns="http://www.w3.org/2000/svg">
<path fill-rule="evenodd" clip-rule="evenodd" d="M7.20829 0.361249C7.25485 0.407695 7.29179 0.462871 7.317 0.523616C7.34221 0.584361 7.35518 0.649482 7.35518 0.715249C7.35518 0.781017 7.34221 0.846138 7.317 0.906883C7.29179 0.967628 7.25485 1.0228 7.20829 1.06925L1.56129 6.71525L7.20829 12.3612C7.30217 12.4551 7.35492 12.5825 7.35492 12.7152C7.35492 12.848 7.30217 12.9754 7.20829 13.0692C7.1144 13.1631 6.98706 13.2159 6.85429 13.2159C6.72151 13.2159 6.59417 13.1631 6.50029 13.0692L0.500287 7.06925C0.453724 7.0228 0.416781 6.96763 0.391574 6.90688C0.366368 6.84614 0.353394 6.78102 0.353394 6.71525C0.353394 6.64948 0.366368 6.58436 0.391574 6.52362C0.416781 6.46287 0.453724 6.40769 0.500287 6.36125L6.50029 0.361249C6.54673 0.314686 6.60191 0.277743 6.66265 0.252537C6.7234 0.22733 6.78852 0.214355 6.85429 0.214355C6.92005 0.214355 6.98518 0.22733 7.04592 0.252537C7.10667 0.277743 7.16184 0.314686 7.20829 0.361249Z" fill="#828282"/>
</svg>
