<svg width="245" height="69" viewBox="0 0 245 69" fill="none" xmlns="http://www.w3.org/2000/svg">
<mask id="mask0_5001_30459" style="mask-type:luminance" maskUnits="userSpaceOnUse" x="0" y="0" width="68" height="69">
<path d="M67.1411 0H0V68.171H67.1411V0Z" fill="white"/>
</mask>
<g mask="url(#mask0_5001_30459)">
<path d="M36.9963 11.6753L39.586 9.08569C44.6714 4.00029 52.9505 3.87442 58.0652 8.93052C60.0031 10.8506 61.2911 13.3296 61.748 16.0192C62.2049 18.7089 61.8076 21.474 60.6122 23.9263C60.0388 25.0978 59.8456 26.419 60.0594 27.7056C60.2735 28.9922 60.8839 30.1798 61.8056 31.1025C63.5005 29.4038 64.8438 27.3877 65.7592 25.1696C66.6746 22.9514 67.1441 20.5746 67.1407 18.175C67.1371 15.7754 66.6612 13.4 65.7395 11.1844C64.8178 8.96888 63.4686 6.95663 61.769 5.26265C54.6171 -1.84897 43.0081 -1.70745 35.8762 5.42415L11.1924 30.1072L9.16317 28.078C3.99153 22.9064 3.95857 14.4528 9.22144 9.37306C11.1695 7.49857 13.6514 6.2749 16.3246 5.87099C18.9977 5.46707 21.7303 5.90282 24.1453 7.11806C25.2476 7.68291 26.5001 7.88497 27.7241 7.6954C28.9481 7.50583 30.0808 6.93432 30.9606 6.06249L31.0235 5.99989C31.0431 5.98044 31.0586 5.9573 31.0692 5.93179C31.0798 5.90632 31.0853 5.87898 31.0853 5.85137C31.0853 5.82377 31.0798 5.79643 31.0692 5.77096C31.0586 5.74548 31.0431 5.72234 31.0235 5.70286C27.6261 2.39084 23.0735 0.530482 18.3288 0.515441C13.5842 0.500403 9.01982 2.33186 5.60153 5.62228C-1.76184 12.7306 -1.73553 24.551 5.50163 31.7882L30.1781 56.4646L27.5568 59.0859C22.4714 64.1713 14.192 64.2971 9.07759 59.241C7.13957 57.321 5.85167 54.8419 5.39478 52.1524C4.93792 49.4628 5.33497 46.6977 6.53023 44.2453C7.10367 43.0738 7.29694 41.7525 7.08306 40.4662C6.86915 39.1795 6.25875 37.9917 5.33714 37.069C3.64233 38.7679 2.29884 40.7838 1.38341 43.0019C0.467987 45.2202 -0.00143005 47.5968 0.00197148 49.9966C0.00537302 52.3961 0.481526 54.7717 1.40324 56.987C2.32495 59.2027 3.67416 61.215 5.37377 62.9089C12.5254 70.0209 24.1347 69.8797 31.2666 62.7477L55.9823 38.0317L58.0192 40.0686C63.1046 45.154 63.2305 53.4331 58.1744 58.5474C56.2544 60.4858 53.7753 61.7734 51.0857 62.2306C48.3962 62.6875 45.631 62.2902 43.1786 61.0948C42.0068 60.521 40.6848 60.3276 39.3978 60.542C38.1108 60.7561 36.9227 61.3672 36 62.2895C37.6989 63.9845 39.7148 65.3281 41.9329 66.2435C44.1512 67.1588 46.5278 67.6283 48.9276 67.625C51.3271 67.6214 53.7027 67.1452 55.918 66.2235C58.1337 65.3018 60.146 63.9525 61.8399 62.2529C68.9519 55.1013 68.8103 43.492 61.6787 36.3604L36.9963 11.6753ZM33.8629 52.7781L14.8782 33.7934L33.3101 15.3619L52.2948 34.3465L33.8629 52.7781Z" fill="white"/>
</g>
<path d="M100.142 33.9922C101.361 34.2194 102.363 34.8288 103.148 35.8204C103.933 36.812 104.325 37.9481 104.325 39.2289C104.325 40.3858 104.036 41.4083 103.458 42.2966C102.9 43.1643 102.084 43.846 101.01 44.3418C99.9357 44.8376 98.6652 45.0854 97.1985 45.0854H87.8715V23.4566H96.7957C98.2624 23.4566 99.5225 23.6942 100.576 24.1693C101.65 24.6445 102.456 25.3055 102.993 26.1525C103.551 26.9995 103.83 27.9601 103.83 29.0343C103.83 30.2944 103.489 31.348 102.807 32.1949C102.146 33.0419 101.258 33.641 100.142 33.9922ZM92.2096 32.3808H96.176C97.2089 32.3808 98.0042 32.1536 98.5619 31.6991C99.1197 31.224 99.3986 30.5526 99.3986 29.685C99.3986 28.8174 99.1197 28.146 98.5619 27.6709C98.0042 27.1957 97.2089 26.9582 96.176 26.9582H92.2096V32.3808ZM96.5788 41.553C97.6323 41.553 98.4483 41.3051 99.0267 40.8093C99.6258 40.3135 99.9254 39.6111 99.9254 38.7022C99.9254 37.7726 99.6155 37.0495 98.9958 36.5331C98.376 35.996 97.5394 35.7274 96.4858 35.7274H92.2096V41.553H96.5788ZM123.741 36.1303C123.741 36.75 123.7 37.3078 123.617 37.8035H111.068C111.171 39.043 111.605 40.0139 112.369 40.7163C113.133 41.4187 114.073 41.7699 115.189 41.7699C116.8 41.7699 117.947 41.0778 118.628 39.6937H123.307C122.812 41.3464 121.861 42.7098 120.457 43.784C119.052 44.8376 117.327 45.3643 115.282 45.3643C113.629 45.3643 112.142 45.0028 110.82 44.2798C109.518 43.5361 108.496 42.4929 107.752 41.1501C107.029 39.8074 106.667 38.258 106.667 36.5021C106.667 34.7255 107.029 33.1658 107.752 31.8231C108.475 30.4803 109.487 29.4474 110.789 28.7244C112.09 28.0014 113.588 27.6399 115.282 27.6399C116.914 27.6399 118.37 27.991 119.651 28.6934C120.952 29.3958 121.954 30.3977 122.657 31.6991C123.38 32.9799 123.741 34.457 123.741 36.1303ZM119.248 34.8908C119.227 33.7753 118.825 32.887 118.04 32.2259C117.255 31.5442 116.294 31.2034 115.158 31.2034C114.084 31.2034 113.175 31.5339 112.431 32.1949C111.708 32.8353 111.264 33.7339 111.099 34.8908H119.248ZM131.246 30.5836C131.804 29.6747 132.527 28.962 133.415 28.4455C134.324 27.9291 135.357 27.6709 136.514 27.6709V32.2259H135.367C134.004 32.2259 132.971 32.5461 132.268 33.1865C131.587 33.8269 131.246 34.9424 131.246 36.5331V45.0854H126.908V27.9187H131.246V30.5836ZM141.636 25.8736C140.871 25.8736 140.231 25.6361 139.714 25.1609C139.219 24.6651 138.971 24.0557 138.971 23.3327C138.971 22.6097 139.219 22.0106 139.714 21.5355C140.231 21.0397 140.871 20.7918 141.636 20.7918C142.4 20.7918 143.03 21.0397 143.526 21.5355C144.042 22.0106 144.3 22.6097 144.3 23.3327C144.3 24.0557 144.042 24.6651 143.526 25.1609C143.03 25.6361 142.4 25.8736 141.636 25.8736ZM143.774 27.9187V45.0854H139.436V27.9187H143.774ZM153.111 31.4822V39.7867C153.111 40.3651 153.245 40.7886 153.513 41.0572C153.803 41.3051 154.278 41.429 154.939 41.429H156.953V45.0854H154.226C150.57 45.0854 148.741 43.3089 148.741 39.7557V31.4822H146.696V27.9187H148.741V23.6736H153.111V27.9187H156.953V31.4822H153.111ZM158.958 36.4401C158.958 34.7049 159.299 33.1658 159.98 31.8231C160.683 30.4803 161.623 29.4474 162.8 28.7244C163.998 28.0014 165.331 27.6399 166.797 27.6399C168.078 27.6399 169.194 27.8981 170.144 28.4145C171.115 28.931 171.89 29.5817 172.468 30.3667V27.9187H176.837V45.0854H172.468V42.5755C171.91 43.3812 171.136 44.0526 170.144 44.5897C169.173 45.1061 168.047 45.3643 166.766 45.3643C165.32 45.3643 163.998 44.9925 162.8 44.2488C161.623 43.5051 160.683 42.4619 159.98 41.1191C159.299 39.7557 158.958 38.196 158.958 36.4401ZM172.468 36.5021C172.468 35.4485 172.261 34.5499 171.848 33.8062C171.435 33.0419 170.877 32.4635 170.175 32.071C169.473 31.6578 168.719 31.4512 167.913 31.4512C167.107 31.4512 166.364 31.6475 165.682 32.04C165 32.4325 164.442 33.0109 164.009 33.7753C163.595 34.5189 163.389 35.4072 163.389 36.4401C163.389 37.473 163.595 38.382 164.009 39.167C164.442 39.9313 165 40.5201 165.682 40.9332C166.384 41.3464 167.128 41.553 167.913 41.553C168.719 41.553 169.473 41.3567 170.175 40.9642C170.877 40.551 171.435 39.9726 171.848 39.2289C172.261 38.4646 172.468 37.5557 172.468 36.5021ZM200.666 45.0854L192.796 35.4485V45.0854H188.458V23.4566H192.796V33.1555L200.666 23.4566H205.903L196.979 34.1781L206.151 45.0854H200.666ZM211.205 25.8736C210.44 25.8736 209.8 25.6361 209.283 25.1609C208.788 24.6651 208.54 24.0557 208.54 23.3327C208.54 22.6097 208.788 22.0106 209.283 21.5355C209.8 21.0397 210.44 20.7918 211.205 20.7918C211.969 20.7918 212.599 21.0397 213.095 21.5355C213.611 22.0106 213.869 22.6097 213.869 23.3327C213.869 24.0557 213.611 24.6651 213.095 25.1609C212.599 25.6361 211.969 25.8736 211.205 25.8736ZM213.343 27.9187V45.0854H209.005V27.9187H213.343ZM227.142 27.6709C229.187 27.6709 230.84 28.3216 232.1 29.623C233.36 30.9038 233.99 32.701 233.99 35.0147V45.0854H229.652V35.6035C229.652 34.2401 229.311 33.1968 228.629 32.4738C227.947 31.7301 227.018 31.3583 225.84 31.3583C224.642 31.3583 223.692 31.7301 222.99 32.4738C222.308 33.1968 221.967 34.2401 221.967 35.6035V45.0854H217.629V27.9187H221.967V30.0568C222.545 29.3132 223.279 28.7347 224.167 28.3216C225.076 27.8878 226.068 27.6709 227.142 27.6709ZM240.315 25.8736C239.551 25.8736 238.911 25.6361 238.394 25.1609C237.898 24.6651 237.65 24.0557 237.65 23.3327C237.65 22.6097 237.898 22.0106 238.394 21.5355C238.911 21.0397 239.551 20.7918 240.315 20.7918C241.08 20.7918 241.71 21.0397 242.205 21.5355C242.722 22.0106 242.98 22.6097 242.98 23.3327C242.98 24.0557 242.722 24.6651 242.205 25.1609C241.71 25.6361 241.08 25.8736 240.315 25.8736ZM242.453 27.9187V45.0854H238.115V27.9187H242.453Z" fill="white"/>
</svg>
