<svg width="8" height="14" viewBox="0 0 8 14" fill="none" xmlns="http://www.w3.org/2000/svg">
<path fill-rule="evenodd" clip-rule="evenodd" d="M0.79173 0.361249C0.838176 0.314686 0.893351 0.277743 0.954096 0.252537C1.01484 0.22733 1.07996 0.214355 1.14573 0.214355C1.2115 0.214355 1.27662 0.22733 1.33736 0.252537C1.39811 0.277743 1.45328 0.314686 1.49973 0.361249L7.49973 6.36125C7.54629 6.40769 7.58324 6.46287 7.60844 6.52362C7.63365 6.58436 7.64662 6.64948 7.64662 6.71525C7.64662 6.78102 7.63365 6.84614 7.60844 6.90688C7.58324 6.96763 7.54629 7.0228 7.49973 7.06925L1.49973 13.0692C1.40584 13.1631 1.27851 13.2159 1.14573 13.2159C1.01295 13.2159 0.885617 13.1631 0.79173 13.0692C0.697843 12.9754 0.645098 12.848 0.645098 12.7152C0.645098 12.5825 0.697843 12.4551 0.79173 12.3612L6.43873 6.71525L0.79173 1.06925C0.745167 1.0228 0.708224 0.967628 0.683017 0.906883C0.657811 0.846138 0.644836 0.781017 0.644836 0.715249C0.644836 0.649482 0.657811 0.584361 0.683017 0.523616C0.708224 0.462871 0.745167 0.407695 0.79173 0.361249Z" fill="#828282"/>
</svg>
