<svg width="425" height="98" viewBox="0 0 425 98" fill="none" xmlns="http://www.w3.org/2000/svg">
<path d="M1.804 25.171V9.66102H4.092V25.171H1.804ZM7.42723 25.171V9.66102H9.64923V19.121H9.69323L14.3572 14.435H17.1072L11.9592 19.605L17.5032 25.171H14.7312L9.69323 20.265H9.64923V25.171H7.42723ZM22.599 25.369C20.003 25.369 18.705 23.9244 18.705 21.035V14.435H20.927V21.057C20.927 21.9224 21.103 22.5604 21.455 22.971C21.807 23.3817 22.3643 23.587 23.127 23.587C23.963 23.587 24.6377 23.3084 25.151 22.751C25.679 22.1937 25.943 21.4457 25.943 20.507V14.435H28.165V25.171H26.009V23.455C25.657 24.0857 25.1877 24.5624 24.601 24.885C24.0143 25.2077 23.347 25.369 22.599 25.369ZM35.8724 25.369C34.523 25.369 33.5184 25.0244 32.8584 24.335C32.1984 23.6457 31.8684 22.6484 31.8684 21.343V16.151H29.7784V14.435H31.8684V11.201H34.0904V14.435H37.4124V16.151H34.0904V21.167C34.0904 21.9444 34.2517 22.531 34.5744 22.927C34.9117 23.323 35.4544 23.521 36.2024 23.521C36.437 23.521 36.6644 23.499 36.8844 23.455C37.1044 23.3964 37.3244 23.3304 37.5444 23.257L37.8964 24.929C37.6764 25.061 37.3684 25.1637 36.9724 25.237C36.591 25.325 36.2244 25.369 35.8724 25.369ZM39.1335 11.949V9.63902H41.7295V11.949H39.1335ZM39.3315 25.171V14.435H41.5535V25.171H39.3315ZM50.7024 25.171V9.66102H52.9904V16.635H53.0344L60.2284 9.66102H63.0444L55.2124 17.163L63.4844 25.171H60.6244L53.0344 17.933H52.9904V25.171H50.7024ZM68.0292 25.369C67.2812 25.369 66.6138 25.2224 66.0272 24.929C65.4405 24.6357 64.9712 24.2397 64.6192 23.741C64.2818 23.2424 64.1132 22.6777 64.1132 22.047C64.1132 21.255 64.3112 20.6317 64.7072 20.177C65.1178 19.7224 65.7852 19.3924 66.7092 19.187C67.6478 18.9817 68.9092 18.879 70.4932 18.879H71.2412V18.307C71.2412 17.471 71.0652 16.8697 70.7132 16.503C70.3612 16.1364 69.7818 15.953 68.9752 15.953C68.3592 15.953 67.7432 16.0484 67.1272 16.239C66.5112 16.415 65.8805 16.701 65.2352 17.097L64.5532 15.535C65.1105 15.139 65.8072 14.8237 66.6432 14.589C67.4792 14.3544 68.2785 14.237 69.0412 14.237C70.5078 14.237 71.5932 14.589 72.2972 15.293C73.0012 15.9824 73.3532 17.0677 73.3532 18.549V25.171H71.2632V23.389C70.9992 24.005 70.5885 24.489 70.0312 24.841C69.4738 25.193 68.8065 25.369 68.0292 25.369ZM68.4692 23.785C69.2612 23.785 69.9212 23.5064 70.4492 22.949C70.9772 22.3917 71.2412 21.6877 71.2412 20.837V20.243H70.5152C69.4445 20.243 68.6012 20.2944 67.9852 20.397C67.3838 20.4997 66.9512 20.6757 66.6872 20.925C66.4378 21.1597 66.3132 21.4897 66.3132 21.915C66.3132 22.4724 66.5038 22.927 66.8852 23.279C67.2665 23.6164 67.7945 23.785 68.4692 23.785ZM76.4576 25.171V14.435H78.6136V16.173C78.9362 15.557 79.3836 15.0804 79.9556 14.743C80.5276 14.4057 81.1949 14.237 81.9576 14.237C83.6002 14.237 84.6636 14.9557 85.1476 16.393C85.4849 15.7184 85.9689 15.1904 86.5996 14.809C87.2302 14.4277 87.9489 14.237 88.7556 14.237C91.1609 14.237 92.3636 15.6744 92.3636 18.549V25.171H90.1416V18.659C90.1416 17.7497 89.9802 17.0824 89.6576 16.657C89.3496 16.2317 88.8362 16.019 88.1176 16.019C87.3109 16.019 86.6729 16.305 86.2036 16.877C85.7342 17.4344 85.4996 18.197 85.4996 19.165V25.171H83.2776V18.659C83.2776 17.7497 83.1236 17.0824 82.8156 16.657C82.5076 16.2317 81.9942 16.019 81.2756 16.019C80.4689 16.019 79.8309 16.305 79.3616 16.877C78.9069 17.4344 78.6796 18.197 78.6796 19.165V25.171H76.4576ZM95.2722 11.949V9.63902H97.8682V11.949H95.2722ZM95.4702 25.171V14.435H97.6922V25.171H95.4702Z" fill="white"/>
<rect y="57.171" width="40" height="40" rx="12" fill="#E0E0E0"/>
<g clip-path="url(#clip0_5001_30469)">
<path d="M20.0765 68.1696H20.21C21.443 68.1741 27.6905 68.2191 29.375 68.6721C29.8842 68.8103 30.3483 69.0798 30.7207 69.4536C31.0932 69.8273 31.361 70.2923 31.4975 70.8021C31.649 71.3721 31.7555 72.1266 31.8275 72.9051L31.8425 73.0611L31.8755 73.4511L31.8875 73.6071C31.985 74.9781 31.997 76.2621 31.9985 76.5426V76.6551C31.997 76.9461 31.9835 78.3171 31.8755 79.7451L31.8635 79.9026L31.85 80.0586C31.775 80.9166 31.664 81.7686 31.4975 82.3956C31.3615 82.9055 31.0938 83.3707 30.7212 83.7445C30.3487 84.1184 29.8844 84.3877 29.375 84.5256C27.635 84.9936 21.0215 85.0266 20.105 85.0281H19.892C19.4285 85.0281 17.5115 85.0191 15.5015 84.9501L15.2465 84.9411L15.116 84.9351L14.8595 84.9246L14.603 84.9141C12.938 84.8406 11.3525 84.7221 10.622 84.5241C10.1127 84.3864 9.6486 84.1172 9.27609 83.7437C8.90358 83.3701 8.63577 82.9052 8.4995 82.3956C8.333 81.7701 8.222 80.9166 8.147 80.0586L8.135 79.9011L8.123 79.7451C8.04897 78.7287 8.00795 77.7101 8 76.6911L8 76.5066C8.003 76.1841 8.015 75.0696 8.096 73.8396L8.1065 73.6851L8.111 73.6071L8.123 73.4511L8.156 73.0611L8.171 72.9051C8.243 72.1266 8.3495 71.3706 8.501 70.8021C8.63704 70.2921 8.90474 69.8269 9.27727 69.4531C9.6498 69.0792 10.1141 68.8099 10.6235 68.6721C11.354 68.4771 12.9395 68.3571 14.6045 68.2821L14.8595 68.2716L15.1175 68.2626L15.2465 68.2581L15.503 68.2476C16.9306 68.2016 18.3587 68.1761 19.787 68.1711H20.0765V68.1696ZM17.6 72.9846V80.2116L23.8355 76.5996L17.6 72.9846Z" fill="#333333"/>
</g>
<rect x="64" y="57.171" width="40" height="40" rx="12" fill="#E0E0E0"/>
<g clip-path="url(#clip1_5001_30469)">
<path d="M84 65.171C80.7435 65.171 80.334 65.186 79.0545 65.243C77.775 65.303 76.9035 65.504 76.14 65.801C75.3391 66.1022 74.6137 66.5748 74.0145 67.1855C73.4041 67.7851 72.9317 68.5104 72.63 69.311C72.333 70.073 72.1305 70.946 72.072 72.221C72.015 73.5035 72 73.9115 72 77.1725C72 80.4305 72.015 80.8385 72.072 82.118C72.132 83.396 72.333 84.2675 72.63 85.031C72.9375 85.82 73.347 86.489 74.0145 87.1565C74.6805 87.824 75.3495 88.235 76.1385 88.541C76.9035 88.838 77.7735 89.0405 79.0515 89.099C80.3325 89.156 80.7405 89.171 84 89.171C87.2595 89.171 87.666 89.156 88.947 89.099C90.2235 89.039 91.098 88.838 91.8615 88.541C92.6618 88.2396 93.3867 87.7671 93.9855 87.1565C94.653 86.489 95.0625 85.82 95.37 85.031C95.6655 84.2675 95.868 83.396 95.928 82.118C95.985 80.8385 96 80.4305 96 77.171C96 73.9115 95.985 73.5035 95.928 72.2225C95.868 70.946 95.6655 70.073 95.37 69.311C95.0684 68.5104 94.5959 67.785 93.9855 67.1855C93.3864 66.5745 92.661 66.102 91.86 65.801C91.095 65.504 90.222 65.3015 88.9455 65.243C87.6645 65.186 87.258 65.171 83.997 65.171H84.0015H84ZM82.9245 67.334H84.0015C87.2055 67.334 87.585 67.3445 88.8495 67.403C90.0195 67.4555 90.6555 67.652 91.0785 67.8155C91.638 68.033 92.0385 68.294 92.4585 68.714C92.8785 69.134 93.138 69.533 93.3555 70.094C93.5205 70.5155 93.7155 71.1515 93.768 72.3215C93.8265 73.586 93.8385 73.9655 93.8385 77.168C93.8385 80.3705 93.8265 80.7515 93.768 82.016C93.7155 83.186 93.519 83.8205 93.3555 84.2435C93.1631 84.7646 92.856 85.2357 92.457 85.622C92.037 86.042 91.638 86.3015 91.077 86.519C90.657 86.684 90.021 86.879 88.8495 86.933C87.585 86.99 87.2055 87.0035 84.0015 87.0035C80.7975 87.0035 80.4165 86.99 79.152 86.933C77.982 86.879 77.3475 86.684 76.9245 86.519C76.4032 86.3269 75.9317 86.0204 75.5445 85.622C75.1451 85.2351 74.8376 84.7635 74.6445 84.242C74.481 83.8205 74.2845 83.1845 74.232 82.0145C74.175 80.75 74.163 80.3705 74.163 77.165C74.163 73.961 74.175 73.583 74.232 72.3185C74.286 71.1485 74.481 70.5125 74.646 70.0895C74.8635 69.53 75.1245 69.1295 75.5445 68.7095C75.9645 68.2895 76.3635 68.03 76.9245 67.8125C77.3475 67.6475 77.982 67.4525 79.152 67.3985C80.259 67.3475 80.688 67.3325 82.9245 67.331V67.334ZM90.4065 69.326C90.2174 69.326 90.0301 69.3633 89.8554 69.4356C89.6807 69.508 89.522 69.6141 89.3883 69.7478C89.2545 69.8815 89.1485 70.0402 89.0761 70.215C89.0037 70.3897 88.9665 70.5769 88.9665 70.766C88.9665 70.9551 89.0037 71.1424 89.0761 71.3171C89.1485 71.4918 89.2545 71.6505 89.3883 71.7843C89.522 71.918 89.6807 72.024 89.8554 72.0964C90.0301 72.1688 90.2174 72.206 90.4065 72.206C90.7884 72.206 91.1547 72.0543 91.4247 71.7843C91.6948 71.5142 91.8465 71.1479 91.8465 70.766C91.8465 70.3841 91.6948 70.0178 91.4247 69.7478C91.1547 69.4777 90.7884 69.326 90.4065 69.326ZM84.0015 71.009C83.1841 70.9963 82.3723 71.1462 81.6135 71.4502C80.8546 71.7542 80.1638 72.2061 79.5812 72.7797C78.9987 73.3532 78.536 74.0369 78.2203 74.7909C77.9045 75.545 77.7419 76.3543 77.7419 77.1718C77.7419 77.9893 77.9045 78.7986 78.2203 79.5526C78.536 80.3067 78.9987 80.9904 79.5812 81.5639C80.1638 82.1374 80.8546 82.5893 81.6135 82.8933C82.3723 83.1973 83.1841 83.3473 84.0015 83.3345C85.6193 83.3093 87.1623 82.6489 88.2975 81.4959C89.4326 80.3429 90.0689 78.7898 90.0689 77.1718C90.0689 75.5538 89.4326 74.0006 88.2975 72.8476C87.1623 71.6947 85.6193 71.0343 84.0015 71.009ZM84.0015 73.1705C85.0625 73.1705 86.08 73.592 86.8303 74.3422C87.5805 75.0925 88.002 76.11 88.002 77.171C88.002 78.232 87.5805 79.2496 86.8303 79.9998C86.08 80.75 85.0625 81.1715 84.0015 81.1715C82.9405 81.1715 81.923 80.75 81.1727 79.9998C80.4225 79.2496 80.001 78.232 80.001 77.171C80.001 76.11 80.4225 75.0925 81.1727 74.3422C81.923 73.592 82.9405 73.1705 84.0015 73.1705Z" fill="#333333"/>
</g>
<rect x="128" y="57.171" width="40" height="40" rx="12" fill="#E0E0E0"/>
<g clip-path="url(#clip2_5001_30469)">
<path d="M160 77.2446C160 70.5756 154.627 65.1696 148 65.1696C141.37 65.1711 135.997 70.5756 135.997 77.2461C135.997 83.2716 140.386 88.2666 146.122 89.1726V80.7351H143.077V77.2461H146.125V74.5836C146.125 71.5581 147.918 69.8871 150.658 69.8871C151.972 69.8871 153.345 70.1226 153.345 70.1226V73.0926H151.831C150.342 73.0926 149.877 74.0241 149.877 74.9796V77.2446H153.204L152.673 80.7336H149.875V89.1711C155.611 88.2651 160 83.2701 160 77.2446Z" fill="#333333"/>
</g>
<defs>
<clipPath id="clip0_5001_30469">
<rect width="24" height="24" fill="white" transform="translate(8 65.171)"/>
</clipPath>
<clipPath id="clip1_5001_30469">
<rect width="24" height="24" fill="white" transform="translate(72 65.171)"/>
</clipPath>
<clipPath id="clip2_5001_30469">
<rect width="24" height="24" fill="white" transform="translate(136 65.171)"/>
</clipPath>
</defs>
</svg>
