<svg width="127" height="321" viewBox="0 0 127 321" fill="none" xmlns="http://www.w3.org/2000/svg">
<path d="M5.588 25V11.404H0.088V9.49H13.354V11.404H7.854V25H5.588ZM18.352 25.198C16.592 25.198 15.206 24.7067 14.194 23.724C13.182 22.7267 12.676 21.37 12.676 19.654C12.676 18.554 12.896 17.586 13.336 16.75C13.7906 15.8993 14.414 15.2393 15.206 14.77C15.998 14.3007 16.9073 14.066 17.934 14.066C19.4153 14.066 20.5813 14.5427 21.432 15.496C22.2826 16.4347 22.708 17.7327 22.708 19.39V20.138H14.832C14.9933 22.3673 16.174 23.482 18.374 23.482C18.99 23.482 19.5913 23.3867 20.178 23.196C20.7793 23.0053 21.344 22.69 21.872 22.25L22.532 23.79C22.048 24.23 21.4246 24.5747 20.662 24.824C19.8993 25.0733 19.1293 25.198 18.352 25.198ZM18.022 15.628C17.098 15.628 16.3646 15.914 15.822 16.486C15.2793 17.058 14.9493 17.8207 14.832 18.774H20.838C20.794 17.7767 20.53 17.0067 20.046 16.464C19.562 15.9067 18.8873 15.628 18.022 15.628ZM28.6284 25.198C27.455 25.198 26.575 24.868 25.9884 24.208C25.4164 23.548 25.1304 22.58 25.1304 21.304V9.49H27.3524V21.172C27.3524 22.624 27.9464 23.35 29.1344 23.35C29.3104 23.35 29.4717 23.3427 29.6184 23.328C29.7797 23.3133 29.941 23.284 30.1024 23.24L30.0584 25.022C29.5597 25.1393 29.083 25.198 28.6284 25.198ZM35.683 25.198C33.087 25.198 31.789 23.7533 31.789 20.864V14.264H34.011V20.886C34.011 21.7513 34.187 22.3893 34.539 22.8C34.891 23.2107 35.4483 23.416 36.211 23.416C37.047 23.416 37.7216 23.1373 38.235 22.58C38.763 22.0227 39.027 21.2747 39.027 20.336V14.264H41.249V25H39.093V23.284C38.741 23.9147 38.2716 24.3913 37.685 24.714C37.0983 25.0367 36.431 25.198 35.683 25.198ZM48.1424 25.198C47.2624 25.198 46.441 25.088 45.6784 24.868C44.9157 24.6333 44.2777 24.3107 43.7644 23.9L44.4024 22.404C44.945 22.7853 45.539 23.0787 46.1844 23.284C46.8444 23.4893 47.5044 23.592 48.1644 23.592C48.9417 23.592 49.5284 23.4527 49.9244 23.174C50.3204 22.8953 50.5184 22.5213 50.5184 22.052C50.5184 21.6707 50.3864 21.3773 50.1224 21.172C49.8584 20.952 49.4624 20.7833 48.9344 20.666L46.8444 20.248C44.9964 19.8667 44.0724 18.9133 44.0724 17.388C44.0724 16.376 44.4757 15.5693 45.2824 14.968C46.089 14.3667 47.145 14.066 48.4504 14.066C49.1984 14.066 49.9097 14.176 50.5844 14.396C51.2737 14.616 51.8457 14.946 52.3004 15.386L51.6624 16.882C51.2224 16.5007 50.7164 16.2073 50.1444 16.002C49.5724 15.7967 49.0077 15.694 48.4504 15.694C47.6877 15.694 47.1084 15.8407 46.7124 16.134C46.3164 16.4127 46.1184 16.794 46.1184 17.278C46.1184 18.0113 46.6024 18.4807 47.5704 18.686L49.6604 19.104C50.6137 19.2947 51.3324 19.6173 51.8164 20.072C52.315 20.5267 52.5644 21.1427 52.5644 21.92C52.5644 22.9467 52.161 23.7533 51.3544 24.34C50.5477 24.912 49.477 25.198 48.1424 25.198ZM58.8646 25.198C56.2686 25.198 54.9706 23.7533 54.9706 20.864V14.264H57.1926V20.886C57.1926 21.7513 57.3686 22.3893 57.7206 22.8C58.0726 23.2107 58.6299 23.416 59.3926 23.416C60.2286 23.416 60.9033 23.1373 61.4166 22.58C61.9446 22.0227 62.2086 21.2747 62.2086 20.336V14.264H64.4306V25H62.2746V23.284C61.9226 23.9147 61.4533 24.3913 60.8666 24.714C60.2799 25.0367 59.6126 25.198 58.8646 25.198ZM67.562 25V14.264H69.718V16.178C70.2753 14.902 71.434 14.1907 73.194 14.044L73.92 14L74.074 15.892L72.732 16.024C70.7813 16.2147 69.806 17.2193 69.806 19.038V25H67.562ZM75.571 11.778V9.468H78.167V11.778H75.571ZM75.769 25V14.264H77.991V25H75.769Z" fill="white"/>
<path d="M1.27841 75V63.3636H5.53977C6.36553 63.3636 7.04924 63.5 7.59091 63.7727C8.13258 64.0417 8.53788 64.4072 8.80682 64.8693C9.07576 65.3277 9.21023 65.8447 9.21023 66.4205C9.21023 66.9053 9.12121 67.3144 8.94318 67.6477C8.76515 67.9773 8.52652 68.2424 8.22727 68.4432C7.93182 68.6402 7.60606 68.7841 7.25 68.875V68.9886C7.63636 69.0076 8.01326 69.1326 8.38068 69.3636C8.75189 69.5909 9.05871 69.9148 9.30114 70.3352C9.54356 70.7557 9.66477 71.267 9.66477 71.8693C9.66477 72.464 9.52462 72.9981 9.24432 73.4716C8.9678 73.9413 8.53977 74.3144 7.96023 74.5909C7.38068 74.8636 6.64015 75 5.73864 75H1.27841ZM3.03409 73.4943H5.56818C6.40909 73.4943 7.01136 73.3314 7.375 73.0057C7.73864 72.6799 7.92045 72.2727 7.92045 71.7841C7.92045 71.4167 7.82765 71.0795 7.64205 70.7727C7.45644 70.4659 7.19129 70.2216 6.84659 70.0398C6.50568 69.858 6.10038 69.767 5.63068 69.767H3.03409V73.4943ZM3.03409 68.3977H5.38636C5.7803 68.3977 6.13447 68.322 6.44886 68.1705C6.76705 68.0189 7.01894 67.8068 7.20455 67.5341C7.39394 67.2576 7.48864 66.9318 7.48864 66.5568C7.48864 66.0758 7.32008 65.6723 6.98295 65.3466C6.64583 65.0208 6.12879 64.858 5.43182 64.858H3.03409V68.3977ZM15.3722 75.1761C14.5123 75.1761 13.7718 74.9924 13.1506 74.625C12.5331 74.2538 12.0559 73.733 11.7188 73.0625C11.3854 72.3883 11.2188 71.5985 11.2188 70.6932C11.2188 69.7992 11.3854 69.0114 11.7188 68.3295C12.0559 67.6477 12.5256 67.1155 13.1278 66.733C13.7339 66.3504 14.4422 66.1591 15.2528 66.1591C15.7453 66.1591 16.2225 66.2405 16.6847 66.4034C17.1468 66.5663 17.5616 66.822 17.929 67.1705C18.2964 67.5189 18.5862 67.9716 18.7983 68.5284C19.0104 69.0814 19.1165 69.7538 19.1165 70.5455V71.1477H12.179V69.875H17.4517C17.4517 69.428 17.3608 69.0322 17.179 68.6875C16.9972 68.339 16.7415 68.0644 16.4119 67.8636C16.0862 67.6629 15.7036 67.5625 15.2642 67.5625C14.7869 67.5625 14.3703 67.6799 14.0142 67.9148C13.6619 68.1458 13.3892 68.4489 13.196 68.8239C13.0066 69.1951 12.9119 69.5985 12.9119 70.0341V71.0284C12.9119 71.6117 13.0142 72.108 13.2188 72.517C13.4271 72.9261 13.7169 73.2386 14.0881 73.4545C14.4593 73.6667 14.893 73.7727 15.3892 73.7727C15.7112 73.7727 16.0047 73.7273 16.2699 73.6364C16.535 73.5417 16.7642 73.4015 16.9574 73.2159C17.1506 73.0303 17.2983 72.8011 17.4006 72.5284L19.0085 72.8182C18.8797 73.2917 18.6487 73.7064 18.3153 74.0625C17.9858 74.4148 17.571 74.6894 17.071 74.8864C16.5748 75.0795 16.0085 75.1761 15.3722 75.1761ZM21.0014 75V66.2727H22.6435V67.6591H22.7344C22.8935 67.1894 23.1738 66.8201 23.5753 66.5511C23.9806 66.2784 24.4389 66.142 24.9503 66.142C25.0563 66.142 25.1813 66.1458 25.3253 66.1534C25.473 66.161 25.5885 66.1705 25.6719 66.1818V67.8068C25.6037 67.7879 25.4825 67.767 25.3082 67.7443C25.134 67.7178 24.9598 67.7045 24.7855 67.7045C24.384 67.7045 24.026 67.7898 23.7116 67.9602C23.401 68.1269 23.1548 68.3598 22.973 68.6591C22.7912 68.9545 22.7003 69.2917 22.7003 69.6705V75H21.0014ZM29.6037 75.1932C29.0507 75.1932 28.5507 75.0909 28.1037 74.8864C27.6567 74.678 27.3026 74.3769 27.0412 73.983C26.7836 73.589 26.6548 73.1061 26.6548 72.5341C26.6548 72.0417 26.7495 71.6364 26.9389 71.3182C27.1283 71 27.384 70.7481 27.706 70.5625C28.0279 70.3769 28.3878 70.2367 28.7855 70.142C29.1832 70.0473 29.5885 69.9754 30.0014 69.9261C30.5241 69.8655 30.9484 69.8163 31.2741 69.7784C31.5999 69.7367 31.8366 69.6705 31.9844 69.5795C32.1321 69.4886 32.206 69.3409 32.206 69.1364V69.0966C32.206 68.6004 32.0658 68.2159 31.7855 67.9432C31.509 67.6705 31.0961 67.5341 30.5469 67.5341C29.9749 67.5341 29.5241 67.661 29.1946 67.9148C28.8688 68.1648 28.6435 68.4432 28.5185 68.75L26.9219 68.3864C27.1113 67.8561 27.3878 67.428 27.7514 67.1023C28.1188 66.7727 28.5412 66.5341 29.0185 66.3864C29.4957 66.2348 29.9976 66.1591 30.5241 66.1591C30.8726 66.1591 31.242 66.2008 31.6321 66.2841C32.026 66.3636 32.3935 66.5114 32.7344 66.7273C33.0791 66.9432 33.3613 67.2519 33.581 67.6534C33.8007 68.0511 33.9105 68.5682 33.9105 69.2045V75H32.2514V73.8068H32.1832C32.0734 74.0265 31.9086 74.2424 31.6889 74.4545C31.4692 74.6667 31.187 74.8428 30.8423 74.983C30.4976 75.1231 30.0848 75.1932 29.6037 75.1932ZM29.973 73.8295C30.4427 73.8295 30.8442 73.7367 31.1776 73.5511C31.5147 73.3655 31.7704 73.1231 31.9446 72.8239C32.1226 72.5208 32.2116 72.197 32.2116 71.8523V70.7273C32.151 70.7879 32.0336 70.8447 31.8594 70.8977C31.6889 70.947 31.4938 70.9905 31.2741 71.0284C31.0545 71.0625 30.8404 71.0947 30.6321 71.125C30.4238 71.1515 30.2495 71.1742 30.1094 71.1932C29.7798 71.2348 29.4787 71.3049 29.206 71.4034C28.937 71.5019 28.7211 71.6439 28.5582 71.8295C28.3991 72.0114 28.3196 72.2538 28.3196 72.5568C28.3196 72.9773 28.4749 73.2955 28.7855 73.5114C29.0961 73.7235 29.492 73.8295 29.973 73.8295ZM37.8722 69.8182V75H36.1733V66.2727H37.804V67.6932H37.9119C38.1127 67.2311 38.4271 66.8598 38.8551 66.5795C39.2869 66.2992 39.8305 66.1591 40.4858 66.1591C41.0805 66.1591 41.6013 66.2841 42.0483 66.5341C42.4953 66.7803 42.8419 67.1477 43.0881 67.6364C43.3343 68.125 43.4574 68.7292 43.4574 69.4489V75H41.7585V69.6534C41.7585 69.0208 41.5938 68.5265 41.2642 68.1705C40.9347 67.8106 40.482 67.6307 39.9062 67.6307C39.5123 67.6307 39.1619 67.7159 38.8551 67.8864C38.5521 68.0568 38.3116 68.3068 38.1335 68.6364C37.9593 68.9621 37.8722 69.3561 37.8722 69.8182ZM49.0028 75.1705C48.2983 75.1705 47.6695 74.9905 47.1165 74.6307C46.5672 74.267 46.1354 73.75 45.821 73.0795C45.5104 72.4053 45.3551 71.5966 45.3551 70.6534C45.3551 69.7102 45.5123 68.9034 45.8267 68.233C46.1449 67.5625 46.5805 67.0492 47.1335 66.6932C47.6866 66.3371 48.3134 66.1591 49.0142 66.1591C49.5559 66.1591 49.9915 66.25 50.321 66.4318C50.6544 66.6098 50.9119 66.8182 51.0938 67.0568C51.2794 67.2955 51.4233 67.5057 51.5256 67.6875H51.6278V63.3636H53.3267V75H51.6676V73.642H51.5256C51.4233 73.8277 51.2756 74.0398 51.0824 74.2784C50.893 74.517 50.6316 74.7254 50.2983 74.9034C49.965 75.0814 49.5331 75.1705 49.0028 75.1705ZM49.3778 73.7216C49.8665 73.7216 50.2794 73.5928 50.6165 73.3352C50.9574 73.0739 51.215 72.7121 51.3892 72.25C51.5672 71.7879 51.6562 71.25 51.6562 70.6364C51.6562 70.0303 51.5691 69.5 51.3949 69.0455C51.2206 68.5909 50.965 68.2367 50.6278 67.983C50.2907 67.7292 49.8741 67.6023 49.3778 67.6023C48.8665 67.6023 48.4403 67.7348 48.0994 68C47.7585 68.2652 47.5009 68.6269 47.3267 69.0852C47.1563 69.5436 47.071 70.0606 47.071 70.6364C47.071 71.2197 47.1581 71.7443 47.3324 72.2102C47.5066 72.6761 47.7642 73.0455 48.1051 73.3182C48.4498 73.5871 48.8741 73.7216 49.3778 73.7216ZM58.2912 75.1932C57.7382 75.1932 57.2382 75.0909 56.7912 74.8864C56.3442 74.678 55.9901 74.3769 55.7287 73.983C55.4711 73.589 55.3423 73.1061 55.3423 72.5341C55.3423 72.0417 55.437 71.6364 55.6264 71.3182C55.8158 71 56.0715 70.7481 56.3935 70.5625C56.7154 70.3769 57.0753 70.2367 57.473 70.142C57.8707 70.0473 58.276 69.9754 58.6889 69.9261C59.2116 69.8655 59.6359 69.8163 59.9616 69.7784C60.2874 69.7367 60.5241 69.6705 60.6719 69.5795C60.8196 69.4886 60.8935 69.3409 60.8935 69.1364V69.0966C60.8935 68.6004 60.7533 68.2159 60.473 67.9432C60.1965 67.6705 59.7836 67.5341 59.2344 67.5341C58.6624 67.5341 58.2116 67.661 57.8821 67.9148C57.5563 68.1648 57.331 68.4432 57.206 68.75L55.6094 68.3864C55.7988 67.8561 56.0753 67.428 56.4389 67.1023C56.8063 66.7727 57.2287 66.5341 57.706 66.3864C58.1832 66.2348 58.6851 66.1591 59.2116 66.1591C59.5601 66.1591 59.9295 66.2008 60.3196 66.2841C60.7135 66.3636 61.081 66.5114 61.4219 66.7273C61.7666 66.9432 62.0488 67.2519 62.2685 67.6534C62.4882 68.0511 62.598 68.5682 62.598 69.2045V75H60.9389V73.8068H60.8707C60.7609 74.0265 60.5961 74.2424 60.3764 74.4545C60.1567 74.6667 59.8745 74.8428 59.5298 74.983C59.1851 75.1231 58.7723 75.1932 58.2912 75.1932ZM58.6605 73.8295C59.1302 73.8295 59.5317 73.7367 59.8651 73.5511C60.2022 73.3655 60.4579 73.1231 60.6321 72.8239C60.8101 72.5208 60.8991 72.197 60.8991 71.8523V70.7273C60.8385 70.7879 60.7211 70.8447 60.5469 70.8977C60.3764 70.947 60.1813 70.9905 59.9616 71.0284C59.742 71.0625 59.5279 71.0947 59.3196 71.125C59.1113 71.1515 58.937 71.1742 58.7969 71.1932C58.4673 71.2348 58.1662 71.3049 57.8935 71.4034C57.6245 71.5019 57.4086 71.6439 57.2457 71.8295C57.0866 72.0114 57.0071 72.2538 57.0071 72.5568C57.0071 72.9773 57.1624 73.2955 57.473 73.5114C57.7836 73.7235 58.1795 73.8295 58.6605 73.8295Z" fill="#F2F2F2"/>
<path d="M1.27841 115V103.364H3.03409V108.92H3.17614L8.05682 103.364H10.267L5.57386 108.602L10.2841 115H8.17045L4.40909 109.801L3.03409 111.381V115H1.27841ZM14.8878 115.176C14.0279 115.176 13.2874 114.992 12.6662 114.625C12.0488 114.254 11.5715 113.733 11.2344 113.062C10.901 112.388 10.7344 111.598 10.7344 110.693C10.7344 109.799 10.901 109.011 11.2344 108.33C11.5715 107.648 12.0412 107.116 12.6435 106.733C13.2495 106.35 13.9579 106.159 14.7685 106.159C15.2609 106.159 15.7382 106.241 16.2003 106.403C16.6624 106.566 17.0772 106.822 17.4446 107.17C17.812 107.519 18.1018 107.972 18.3139 108.528C18.526 109.081 18.6321 109.754 18.6321 110.545V111.148H11.6946V109.875H16.9673C16.9673 109.428 16.8764 109.032 16.6946 108.688C16.5128 108.339 16.2571 108.064 15.9276 107.864C15.6018 107.663 15.2192 107.562 14.7798 107.562C14.3026 107.562 13.8859 107.68 13.5298 107.915C13.1776 108.146 12.9048 108.449 12.7116 108.824C12.5223 109.195 12.4276 109.598 12.4276 110.034V111.028C12.4276 111.612 12.5298 112.108 12.7344 112.517C12.9427 112.926 13.2325 113.239 13.6037 113.455C13.9749 113.667 14.4086 113.773 14.9048 113.773C15.2268 113.773 15.5204 113.727 15.7855 113.636C16.0507 113.542 16.2798 113.402 16.473 113.216C16.6662 113.03 16.8139 112.801 16.9162 112.528L18.5241 112.818C18.3954 113.292 18.1643 113.706 17.831 114.062C17.5014 114.415 17.0866 114.689 16.5866 114.886C16.0904 115.08 15.5241 115.176 14.8878 115.176ZM27.0568 108.403L25.517 108.676C25.4527 108.479 25.3504 108.292 25.2102 108.114C25.0739 107.936 24.8883 107.79 24.6534 107.676C24.4186 107.562 24.125 107.506 23.7727 107.506C23.2917 107.506 22.8902 107.614 22.5682 107.83C22.2462 108.042 22.0852 108.316 22.0852 108.653C22.0852 108.945 22.1932 109.18 22.4091 109.358C22.625 109.536 22.9735 109.682 23.4545 109.795L24.8409 110.114C25.6439 110.299 26.2424 110.585 26.6364 110.972C27.0303 111.358 27.2273 111.86 27.2273 112.477C27.2273 113 27.0758 113.466 26.7727 113.875C26.4735 114.28 26.0549 114.598 25.517 114.83C24.983 115.061 24.3636 115.176 23.6591 115.176C22.6818 115.176 21.8845 114.968 21.267 114.551C20.6496 114.131 20.2708 113.534 20.1307 112.761L21.7727 112.511C21.875 112.939 22.0852 113.263 22.4034 113.483C22.7216 113.699 23.1364 113.807 23.6477 113.807C24.2045 113.807 24.6496 113.691 24.983 113.46C25.3163 113.225 25.483 112.939 25.483 112.602C25.483 112.33 25.3807 112.1 25.1761 111.915C24.9754 111.729 24.6667 111.589 24.25 111.494L22.7727 111.17C21.9583 110.985 21.3561 110.689 20.9659 110.284C20.5795 109.879 20.3864 109.366 20.3864 108.744C20.3864 108.229 20.5303 107.778 20.8182 107.392C21.1061 107.006 21.5038 106.705 22.0114 106.489C22.5189 106.269 23.1004 106.159 23.7557 106.159C24.6989 106.159 25.4413 106.364 25.983 106.773C26.5246 107.178 26.8826 107.722 27.0568 108.403ZM32.8565 115.176C31.9967 115.176 31.2562 114.992 30.6349 114.625C30.0175 114.254 29.5402 113.733 29.2031 113.062C28.8698 112.388 28.7031 111.598 28.7031 110.693C28.7031 109.799 28.8698 109.011 29.2031 108.33C29.5402 107.648 30.0099 107.116 30.6122 106.733C31.2183 106.35 31.9266 106.159 32.7372 106.159C33.2296 106.159 33.7069 106.241 34.169 106.403C34.6312 106.566 35.0459 106.822 35.4134 107.17C35.7808 107.519 36.0705 107.972 36.2827 108.528C36.4948 109.081 36.6009 109.754 36.6009 110.545V111.148H29.6634V109.875H34.9361C34.9361 109.428 34.8452 109.032 34.6634 108.688C34.4815 108.339 34.2259 108.064 33.8963 107.864C33.5705 107.663 33.188 107.562 32.7486 107.562C32.2713 107.562 31.8546 107.68 31.4986 107.915C31.1463 108.146 30.8736 108.449 30.6804 108.824C30.491 109.195 30.3963 109.598 30.3963 110.034V111.028C30.3963 111.612 30.4986 112.108 30.7031 112.517C30.9115 112.926 31.2012 113.239 31.5724 113.455C31.9437 113.667 32.3774 113.773 32.8736 113.773C33.1955 113.773 33.4891 113.727 33.7543 113.636C34.0194 113.542 34.2486 113.402 34.4418 113.216C34.6349 113.03 34.7827 112.801 34.8849 112.528L36.4929 112.818C36.3641 113.292 36.133 113.706 35.7997 114.062C35.4702 114.415 35.0554 114.689 34.5554 114.886C34.0592 115.08 33.4929 115.176 32.8565 115.176ZM40.1847 109.818V115H38.4858V103.364H40.1619V107.693H40.2699C40.4744 107.223 40.7869 106.85 41.2074 106.574C41.6278 106.297 42.1771 106.159 42.8551 106.159C43.4536 106.159 43.9763 106.282 44.4233 106.528C44.8741 106.775 45.2225 107.142 45.4688 107.631C45.7188 108.116 45.8438 108.722 45.8438 109.449V115H44.1449V109.653C44.1449 109.013 43.9801 108.517 43.6506 108.165C43.321 107.809 42.8627 107.631 42.2756 107.631C41.8741 107.631 41.5142 107.716 41.196 107.886C40.8816 108.057 40.6335 108.307 40.4517 108.636C40.2737 108.962 40.1847 109.356 40.1847 109.818ZM50.6506 115.193C50.0975 115.193 49.5975 115.091 49.1506 114.886C48.7036 114.678 48.3494 114.377 48.0881 113.983C47.8305 113.589 47.7017 113.106 47.7017 112.534C47.7017 112.042 47.7964 111.636 47.9858 111.318C48.1752 111 48.4309 110.748 48.7528 110.562C49.0748 110.377 49.4347 110.237 49.8324 110.142C50.2301 110.047 50.6354 109.975 51.0483 109.926C51.571 109.866 51.9953 109.816 52.321 109.778C52.6468 109.737 52.8835 109.67 53.0312 109.58C53.179 109.489 53.2528 109.341 53.2528 109.136V109.097C53.2528 108.6 53.1127 108.216 52.8324 107.943C52.5559 107.67 52.143 107.534 51.5938 107.534C51.0218 107.534 50.571 107.661 50.2415 107.915C49.9157 108.165 49.6903 108.443 49.5653 108.75L47.9688 108.386C48.1581 107.856 48.4347 107.428 48.7983 107.102C49.1657 106.773 49.5881 106.534 50.0653 106.386C50.5426 106.235 51.0445 106.159 51.571 106.159C51.9195 106.159 52.2888 106.201 52.679 106.284C53.0729 106.364 53.4403 106.511 53.7812 106.727C54.1259 106.943 54.4081 107.252 54.6278 107.653C54.8475 108.051 54.9574 108.568 54.9574 109.205V115H53.2983V113.807H53.2301C53.1203 114.027 52.9555 114.242 52.7358 114.455C52.5161 114.667 52.2339 114.843 51.8892 114.983C51.5445 115.123 51.1316 115.193 50.6506 115.193ZM51.0199 113.83C51.4896 113.83 51.8911 113.737 52.2244 113.551C52.5616 113.366 52.8172 113.123 52.9915 112.824C53.1695 112.521 53.2585 112.197 53.2585 111.852V110.727C53.1979 110.788 53.0805 110.845 52.9062 110.898C52.7358 110.947 52.5407 110.991 52.321 111.028C52.1013 111.062 51.8873 111.095 51.679 111.125C51.4706 111.152 51.2964 111.174 51.1562 111.193C50.8267 111.235 50.5256 111.305 50.2528 111.403C49.9839 111.502 49.768 111.644 49.6051 111.83C49.446 112.011 49.3665 112.254 49.3665 112.557C49.3665 112.977 49.5218 113.295 49.8324 113.511C50.143 113.723 50.5388 113.83 51.0199 113.83ZM61.294 106.273V107.636H56.527V106.273H61.294ZM57.8054 104.182H59.5043V112.438C59.5043 112.767 59.5535 113.015 59.652 113.182C59.7505 113.345 59.8774 113.456 60.0327 113.517C60.1918 113.574 60.3641 113.602 60.5497 113.602C60.6861 113.602 60.8054 113.593 60.9077 113.574C61.0099 113.555 61.0895 113.54 61.1463 113.528L61.4531 114.932C61.3546 114.97 61.2145 115.008 61.0327 115.045C60.8509 115.087 60.6236 115.11 60.3509 115.114C59.9039 115.121 59.4872 115.042 59.1009 114.875C58.7145 114.708 58.402 114.451 58.1634 114.102C57.9247 113.754 57.8054 113.316 57.8054 112.79V104.182ZM65.7131 115.193C65.16 115.193 64.66 115.091 64.2131 114.886C63.7661 114.678 63.4119 114.377 63.1506 113.983C62.893 113.589 62.7642 113.106 62.7642 112.534C62.7642 112.042 62.8589 111.636 63.0483 111.318C63.2377 111 63.4934 110.748 63.8153 110.562C64.1373 110.377 64.4972 110.237 64.8949 110.142C65.2926 110.047 65.6979 109.975 66.1108 109.926C66.6335 109.866 67.0578 109.816 67.3835 109.778C67.7093 109.737 67.946 109.67 68.0938 109.58C68.2415 109.489 68.3153 109.341 68.3153 109.136V109.097C68.3153 108.6 68.1752 108.216 67.8949 107.943C67.6184 107.67 67.2055 107.534 66.6562 107.534C66.0843 107.534 65.6335 107.661 65.304 107.915C64.9782 108.165 64.7528 108.443 64.6278 108.75L63.0312 108.386C63.2206 107.856 63.4972 107.428 63.8608 107.102C64.2282 106.773 64.6506 106.534 65.1278 106.386C65.6051 106.235 66.107 106.159 66.6335 106.159C66.982 106.159 67.3513 106.201 67.7415 106.284C68.1354 106.364 68.5028 106.511 68.8438 106.727C69.1884 106.943 69.4706 107.252 69.6903 107.653C69.91 108.051 70.0199 108.568 70.0199 109.205V115H68.3608V113.807H68.2926C68.1828 114.027 68.018 114.242 67.7983 114.455C67.5786 114.667 67.2964 114.843 66.9517 114.983C66.607 115.123 66.1941 115.193 65.7131 115.193ZM66.0824 113.83C66.5521 113.83 66.9536 113.737 67.2869 113.551C67.6241 113.366 67.8797 113.123 68.054 112.824C68.232 112.521 68.321 112.197 68.321 111.852V110.727C68.2604 110.788 68.143 110.845 67.9688 110.898C67.7983 110.947 67.6032 110.991 67.3835 111.028C67.1638 111.062 66.9498 111.095 66.7415 111.125C66.5331 111.152 66.3589 111.174 66.2188 111.193C65.8892 111.235 65.5881 111.305 65.3153 111.403C65.0464 111.502 64.8305 111.644 64.6676 111.83C64.5085 112.011 64.429 112.254 64.429 112.557C64.429 112.977 64.5843 113.295 64.8949 113.511C65.2055 113.723 65.6013 113.83 66.0824 113.83ZM73.9815 109.818V115H72.2827V106.273H73.9134V107.693H74.0213C74.2221 107.231 74.5365 106.86 74.9645 106.58C75.3963 106.299 75.9399 106.159 76.5952 106.159C77.1899 106.159 77.7107 106.284 78.1577 106.534C78.6046 106.78 78.9512 107.148 79.1974 107.636C79.4437 108.125 79.5668 108.729 79.5668 109.449V115H77.8679V109.653C77.8679 109.021 77.7031 108.527 77.3736 108.17C77.044 107.811 76.5914 107.631 76.0156 107.631C75.6217 107.631 75.2713 107.716 74.9645 107.886C74.6615 108.057 74.4209 108.307 74.2429 108.636C74.0687 108.962 73.9815 109.356 73.9815 109.818Z" fill="#F2F2F2"/>
<path d="M11.3864 149.182C11.3864 150.424 11.1591 151.492 10.7045 152.386C10.25 153.277 9.62689 153.962 8.83523 154.443C8.04735 154.92 7.15152 155.159 6.14773 155.159C5.14015 155.159 4.24053 154.92 3.44886 154.443C2.66098 153.962 2.03977 153.275 1.58523 152.381C1.13068 151.487 0.903409 150.42 0.903409 149.182C0.903409 147.939 1.13068 146.873 1.58523 145.983C2.03977 145.089 2.66098 144.403 3.44886 143.926C4.24053 143.445 5.14015 143.205 6.14773 143.205C7.15152 143.205 8.04735 143.445 8.83523 143.926C9.62689 144.403 10.25 145.089 10.7045 145.983C11.1591 146.873 11.3864 147.939 11.3864 149.182ZM9.64773 149.182C9.64773 148.235 9.49432 147.437 9.1875 146.79C8.88447 146.138 8.4678 145.646 7.9375 145.312C7.41098 144.975 6.81439 144.807 6.14773 144.807C5.47727 144.807 4.87879 144.975 4.35227 145.312C3.82576 145.646 3.40909 146.138 3.10227 146.79C2.79924 147.437 2.64773 148.235 2.64773 149.182C2.64773 150.129 2.79924 150.928 3.10227 151.58C3.40909 152.227 3.82576 152.72 4.35227 153.057C4.87879 153.39 5.47727 153.557 6.14773 153.557C6.81439 153.557 7.41098 153.39 7.9375 153.057C8.4678 152.72 8.88447 152.227 9.1875 151.58C9.49432 150.928 9.64773 150.129 9.64773 149.182ZM17.5128 146.273V147.636H12.7457V146.273H17.5128ZM14.0241 144.182H15.723V152.438C15.723 152.767 15.7723 153.015 15.8707 153.182C15.9692 153.345 16.0961 153.456 16.2514 153.517C16.4105 153.574 16.5829 153.602 16.7685 153.602C16.9048 153.602 17.0241 153.593 17.1264 153.574C17.2287 153.555 17.3082 153.54 17.3651 153.528L17.6719 154.932C17.5734 154.97 17.4332 155.008 17.2514 155.045C17.0696 155.087 16.8423 155.11 16.5696 155.114C16.1226 155.121 15.706 155.042 15.3196 154.875C14.9332 154.708 14.6207 154.451 14.3821 154.102C14.1435 153.754 14.0241 153.316 14.0241 152.79V144.182ZM22.9744 155.176C22.1563 155.176 21.4422 154.989 20.8324 154.614C20.2225 154.239 19.7491 153.714 19.4119 153.04C19.0748 152.366 18.9062 151.578 18.9062 150.676C18.9062 149.771 19.0748 148.979 19.4119 148.301C19.7491 147.623 20.2225 147.097 20.8324 146.722C21.4422 146.347 22.1563 146.159 22.9744 146.159C23.7926 146.159 24.5066 146.347 25.1165 146.722C25.7263 147.097 26.1998 147.623 26.5369 148.301C26.8741 148.979 27.0426 149.771 27.0426 150.676C27.0426 151.578 26.8741 152.366 26.5369 153.04C26.1998 153.714 25.7263 154.239 25.1165 154.614C24.5066 154.989 23.7926 155.176 22.9744 155.176ZM22.9801 153.75C23.5104 153.75 23.9498 153.61 24.2983 153.33C24.6468 153.049 24.9044 152.676 25.071 152.21C25.2415 151.744 25.3267 151.231 25.3267 150.67C25.3267 150.114 25.2415 149.602 25.071 149.136C24.9044 148.667 24.6468 148.29 24.2983 148.006C23.9498 147.722 23.5104 147.58 22.9801 147.58C22.446 147.58 22.0028 147.722 21.6506 148.006C21.3021 148.29 21.0426 148.667 20.8722 149.136C20.7055 149.602 20.6222 150.114 20.6222 150.67C20.6222 151.231 20.7055 151.744 20.8722 152.21C21.0426 152.676 21.3021 153.049 21.6506 153.33C22.0028 153.61 22.446 153.75 22.9801 153.75ZM28.9389 155V146.273H30.5696V147.693H30.6776C30.8594 147.212 31.1567 146.837 31.5696 146.568C31.9825 146.295 32.4768 146.159 33.0526 146.159C33.6359 146.159 34.1245 146.295 34.5185 146.568C34.9162 146.841 35.2098 147.216 35.3991 147.693H35.4901C35.6984 147.227 36.0298 146.856 36.4844 146.58C36.9389 146.299 37.4806 146.159 38.1094 146.159C38.901 146.159 39.5469 146.407 40.0469 146.903C40.5507 147.4 40.8026 148.148 40.8026 149.148V155H39.1037V149.307C39.1037 148.716 38.9427 148.288 38.6207 148.023C38.2988 147.758 37.9143 147.625 37.4673 147.625C36.9143 147.625 36.4844 147.795 36.1776 148.136C35.8707 148.473 35.7173 148.907 35.7173 149.438V155H34.0241V149.199C34.0241 148.725 33.8764 148.345 33.581 148.057C33.2855 147.769 32.901 147.625 32.4276 147.625C32.1056 147.625 31.8082 147.71 31.5355 147.881C31.2666 148.047 31.0488 148.28 30.8821 148.58C30.7192 148.879 30.6378 149.225 30.6378 149.619V155H28.9389ZM46.7557 155.176C45.9375 155.176 45.2235 154.989 44.6136 154.614C44.0038 154.239 43.5303 153.714 43.1932 153.04C42.8561 152.366 42.6875 151.578 42.6875 150.676C42.6875 149.771 42.8561 148.979 43.1932 148.301C43.5303 147.623 44.0038 147.097 44.6136 146.722C45.2235 146.347 45.9375 146.159 46.7557 146.159C47.5739 146.159 48.2879 146.347 48.8977 146.722C49.5076 147.097 49.9811 147.623 50.3182 148.301C50.6553 148.979 50.8239 149.771 50.8239 150.676C50.8239 151.578 50.6553 152.366 50.3182 153.04C49.9811 153.714 49.5076 154.239 48.8977 154.614C48.2879 154.989 47.5739 155.176 46.7557 155.176ZM46.7614 153.75C47.2917 153.75 47.7311 153.61 48.0795 153.33C48.428 153.049 48.6856 152.676 48.8523 152.21C49.0227 151.744 49.108 151.231 49.108 150.67C49.108 150.114 49.0227 149.602 48.8523 149.136C48.6856 148.667 48.428 148.29 48.0795 148.006C47.7311 147.722 47.2917 147.58 46.7614 147.58C46.2273 147.58 45.7841 147.722 45.4318 148.006C45.0833 148.29 44.8239 148.667 44.6534 149.136C44.4867 149.602 44.4034 150.114 44.4034 150.67C44.4034 151.231 44.4867 151.744 44.6534 152.21C44.8239 152.676 45.0833 153.049 45.4318 153.33C45.7841 153.61 46.2273 153.75 46.7614 153.75ZM56.794 146.273V147.636H52.027V146.273H56.794ZM53.3054 144.182H55.0043V152.438C55.0043 152.767 55.0535 153.015 55.152 153.182C55.2505 153.345 55.3774 153.456 55.5327 153.517C55.6918 153.574 55.8641 153.602 56.0497 153.602C56.1861 153.602 56.3054 153.593 56.4077 153.574C56.5099 153.555 56.5895 153.54 56.6463 153.528L56.9531 154.932C56.8546 154.97 56.7145 155.008 56.5327 155.045C56.3509 155.087 56.1236 155.11 55.8509 155.114C55.4039 155.121 54.9872 155.042 54.6009 154.875C54.2145 154.708 53.902 154.451 53.6634 154.102C53.4247 153.754 53.3054 153.316 53.3054 152.79V144.182ZM58.6733 155V146.273H60.3722V155H58.6733ZM59.5312 144.926C59.2358 144.926 58.982 144.828 58.7699 144.631C58.5616 144.43 58.4574 144.191 58.4574 143.915C58.4574 143.634 58.5616 143.396 58.7699 143.199C58.982 142.998 59.2358 142.898 59.5312 142.898C59.8267 142.898 60.0786 142.998 60.2869 143.199C60.4991 143.396 60.6051 143.634 60.6051 143.915C60.6051 144.191 60.4991 144.43 60.2869 144.631C60.0786 144.828 59.8267 144.926 59.5312 144.926ZM66.8111 146.273V147.636H61.8793V146.273H66.8111ZM63.2315 155V145.261C63.2315 144.716 63.3509 144.263 63.5895 143.903C63.8281 143.54 64.1444 143.269 64.5384 143.091C64.9323 142.909 65.3603 142.818 65.8224 142.818C66.1634 142.818 66.455 142.847 66.6974 142.903C66.9399 142.956 67.1198 143.006 67.2372 143.051L66.8395 144.426C66.7599 144.403 66.6577 144.377 66.5327 144.347C66.4077 144.312 66.2562 144.295 66.0781 144.295C65.6652 144.295 65.3698 144.398 65.1918 144.602C65.0175 144.807 64.9304 145.102 64.9304 145.489V155H63.2315Z" fill="#F2F2F2"/>
<path d="M1.27841 195V183.364H5.42614C6.33144 183.364 7.08144 183.528 7.67614 183.858C8.27083 184.187 8.71591 184.638 9.01136 185.21C9.30682 185.778 9.45455 186.419 9.45455 187.131C9.45455 187.847 9.30492 188.491 9.00568 189.062C8.71023 189.631 8.26326 190.081 7.66477 190.415C7.07008 190.744 6.32197 190.909 5.42045 190.909H2.56818V189.42H5.26136C5.83333 189.42 6.29735 189.322 6.65341 189.125C7.00947 188.924 7.27083 188.652 7.4375 188.307C7.60417 187.962 7.6875 187.57 7.6875 187.131C7.6875 186.691 7.60417 186.301 7.4375 185.96C7.27083 185.619 7.00758 185.352 6.64773 185.159C6.29167 184.966 5.82197 184.869 5.23864 184.869H3.03409V195H1.27841ZM14.9432 195.176C14.125 195.176 13.411 194.989 12.8011 194.614C12.1913 194.239 11.7178 193.714 11.3807 193.04C11.0436 192.366 10.875 191.578 10.875 190.676C10.875 189.771 11.0436 188.979 11.3807 188.301C11.7178 187.623 12.1913 187.097 12.8011 186.722C13.411 186.347 14.125 186.159 14.9432 186.159C15.7614 186.159 16.4754 186.347 17.0852 186.722C17.6951 187.097 18.1686 187.623 18.5057 188.301C18.8428 188.979 19.0114 189.771 19.0114 190.676C19.0114 191.578 18.8428 192.366 18.5057 193.04C18.1686 193.714 17.6951 194.239 17.0852 194.614C16.4754 194.989 15.7614 195.176 14.9432 195.176ZM14.9489 193.75C15.4792 193.75 15.9186 193.61 16.267 193.33C16.6155 193.049 16.8731 192.676 17.0398 192.21C17.2102 191.744 17.2955 191.231 17.2955 190.67C17.2955 190.114 17.2102 189.602 17.0398 189.136C16.8731 188.667 16.6155 188.29 16.267 188.006C15.9186 187.722 15.4792 187.58 14.9489 187.58C14.4148 187.58 13.9716 187.722 13.6193 188.006C13.2708 188.29 13.0114 188.667 12.8409 189.136C12.6742 189.602 12.5909 190.114 12.5909 190.67C12.5909 191.231 12.6742 191.744 12.8409 192.21C13.0114 192.676 13.2708 193.049 13.6193 193.33C13.9716 193.61 14.4148 193.75 14.9489 193.75ZM22.6065 183.364V195H20.9077V183.364H22.6065ZM24.892 195V186.273H26.5909V195H24.892ZM25.75 184.926C25.4545 184.926 25.2008 184.828 24.9886 184.631C24.7803 184.43 24.6761 184.191 24.6761 183.915C24.6761 183.634 24.7803 183.396 24.9886 183.199C25.2008 182.998 25.4545 182.898 25.75 182.898C26.0455 182.898 26.2973 182.998 26.5057 183.199C26.7178 183.396 26.8239 183.634 26.8239 183.915C26.8239 184.191 26.7178 184.43 26.5057 184.631C26.2973 184.828 26.0455 184.926 25.75 184.926ZM32.9503 186.273V187.636H28.1832V186.273H32.9503ZM29.4616 184.182H31.1605V192.438C31.1605 192.767 31.2098 193.015 31.3082 193.182C31.4067 193.345 31.5336 193.456 31.6889 193.517C31.848 193.574 32.0204 193.602 32.206 193.602C32.3423 193.602 32.4616 193.593 32.5639 193.574C32.6662 193.555 32.7457 193.54 32.8026 193.528L33.1094 194.932C33.0109 194.97 32.8707 195.008 32.6889 195.045C32.5071 195.087 32.2798 195.11 32.0071 195.114C31.5601 195.121 31.1435 195.042 30.7571 194.875C30.3707 194.708 30.0582 194.451 29.8196 194.102C29.581 193.754 29.4616 193.316 29.4616 192.79V184.182ZM34.8295 195V186.273H36.5284V195H34.8295ZM35.6875 184.926C35.392 184.926 35.1383 184.828 34.9261 184.631C34.7178 184.43 34.6136 184.191 34.6136 183.915C34.6136 183.634 34.7178 183.396 34.9261 183.199C35.1383 182.998 35.392 182.898 35.6875 182.898C35.983 182.898 36.2348 182.998 36.4432 183.199C36.6553 183.396 36.7614 183.634 36.7614 183.915C36.7614 184.191 36.6553 184.43 36.4432 184.631C36.2348 184.828 35.983 184.926 35.6875 184.926ZM40.3764 192.04L40.3651 189.966H40.6605L44.1378 186.273H46.1719L42.206 190.477H41.9389L40.3764 192.04ZM38.8139 195V183.364H40.5128V195H38.8139ZM44.3253 195L41.2003 190.852L42.3707 189.665L46.4105 195H44.3253Z" fill="#F2F2F2"/>
<path d="M11.3864 229.182C11.3864 230.424 11.1591 231.492 10.7045 232.386C10.25 233.277 9.62689 233.962 8.83523 234.443C8.04735 234.92 7.15152 235.159 6.14773 235.159C5.14015 235.159 4.24053 234.92 3.44886 234.443C2.66098 233.962 2.03977 233.275 1.58523 232.381C1.13068 231.487 0.903409 230.42 0.903409 229.182C0.903409 227.939 1.13068 226.873 1.58523 225.983C2.03977 225.089 2.66098 224.403 3.44886 223.926C4.24053 223.445 5.14015 223.205 6.14773 223.205C7.15152 223.205 8.04735 223.445 8.83523 223.926C9.62689 224.403 10.25 225.089 10.7045 225.983C11.1591 226.873 11.3864 227.939 11.3864 229.182ZM9.64773 229.182C9.64773 228.235 9.49432 227.437 9.1875 226.79C8.88447 226.138 8.4678 225.646 7.9375 225.312C7.41098 224.975 6.81439 224.807 6.14773 224.807C5.47727 224.807 4.87879 224.975 4.35227 225.312C3.82576 225.646 3.40909 226.138 3.10227 226.79C2.79924 227.437 2.64773 228.235 2.64773 229.182C2.64773 230.129 2.79924 230.928 3.10227 231.58C3.40909 232.227 3.82576 232.72 4.35227 233.057C4.87879 233.39 5.47727 233.557 6.14773 233.557C6.81439 233.557 7.41098 233.39 7.9375 233.057C8.4678 232.72 8.88447 232.227 9.1875 231.58C9.49432 230.928 9.64773 230.129 9.64773 229.182ZM15.1378 223.364V235H13.4389V223.364H15.1378ZM19.9631 235.193C19.41 235.193 18.91 235.091 18.4631 234.886C18.0161 234.678 17.6619 234.377 17.4006 233.983C17.143 233.589 17.0142 233.106 17.0142 232.534C17.0142 232.042 17.1089 231.636 17.2983 231.318C17.4877 231 17.7434 230.748 18.0653 230.562C18.3873 230.377 18.7472 230.237 19.1449 230.142C19.5426 230.047 19.9479 229.975 20.3608 229.926C20.8835 229.866 21.3078 229.816 21.6335 229.778C21.9593 229.737 22.196 229.67 22.3438 229.58C22.4915 229.489 22.5653 229.341 22.5653 229.136V229.097C22.5653 228.6 22.4252 228.216 22.1449 227.943C21.8684 227.67 21.4555 227.534 20.9062 227.534C20.3343 227.534 19.8835 227.661 19.554 227.915C19.2282 228.165 19.0028 228.443 18.8778 228.75L17.2812 228.386C17.4706 227.856 17.7472 227.428 18.1108 227.102C18.4782 226.773 18.9006 226.534 19.3778 226.386C19.8551 226.235 20.357 226.159 20.8835 226.159C21.232 226.159 21.6013 226.201 21.9915 226.284C22.3854 226.364 22.7528 226.511 23.0938 226.727C23.4384 226.943 23.7206 227.252 23.9403 227.653C24.16 228.051 24.2699 228.568 24.2699 229.205V235H22.6108V233.807H22.5426C22.4328 234.027 22.268 234.242 22.0483 234.455C21.8286 234.667 21.5464 234.843 21.2017 234.983C20.857 235.123 20.4441 235.193 19.9631 235.193ZM20.3324 233.83C20.8021 233.83 21.2036 233.737 21.5369 233.551C21.8741 233.366 22.1297 233.123 22.304 232.824C22.482 232.521 22.571 232.197 22.571 231.852V230.727C22.5104 230.788 22.393 230.845 22.2188 230.898C22.0483 230.947 21.8532 230.991 21.6335 231.028C21.4138 231.062 21.1998 231.095 20.9915 231.125C20.7831 231.152 20.6089 231.174 20.4688 231.193C20.1392 231.235 19.8381 231.305 19.5653 231.403C19.2964 231.502 19.0805 231.644 18.9176 231.83C18.7585 232.011 18.679 232.254 18.679 232.557C18.679 232.977 18.8343 233.295 19.1449 233.511C19.4555 233.723 19.8513 233.83 20.3324 233.83ZM28.2315 229.818V235H26.5327V223.364H28.2088V227.693H28.3168C28.5213 227.223 28.8338 226.85 29.2543 226.574C29.6747 226.297 30.224 226.159 30.902 226.159C31.5005 226.159 32.0232 226.282 32.4702 226.528C32.9209 226.775 33.2694 227.142 33.5156 227.631C33.7656 228.116 33.8906 228.722 33.8906 229.449V235H32.1918V229.653C32.1918 229.013 32.027 228.517 31.6974 228.165C31.3679 227.809 30.9096 227.631 30.3224 227.631C29.9209 227.631 29.5611 227.716 29.2429 227.886C28.9285 228.057 28.6804 228.307 28.4986 228.636C28.3205 228.962 28.2315 229.356 28.2315 229.818ZM36.1577 235V226.273H37.7997V227.659H37.8906C38.0497 227.189 38.33 226.82 38.7315 226.551C39.1368 226.278 39.5952 226.142 40.1065 226.142C40.2126 226.142 40.3376 226.146 40.4815 226.153C40.6293 226.161 40.7448 226.17 40.8281 226.182V227.807C40.7599 227.788 40.6387 227.767 40.4645 227.744C40.2902 227.718 40.116 227.705 39.9418 227.705C39.5402 227.705 39.1823 227.79 38.8679 227.96C38.5573 228.127 38.3111 228.36 38.1293 228.659C37.9474 228.955 37.8565 229.292 37.8565 229.67V235H36.1577ZM44.7599 235.193C44.2069 235.193 43.7069 235.091 43.2599 234.886C42.813 234.678 42.4588 234.377 42.1974 233.983C41.9399 233.589 41.8111 233.106 41.8111 232.534C41.8111 232.042 41.9058 231.636 42.0952 231.318C42.2846 231 42.5402 230.748 42.8622 230.562C43.1842 230.377 43.544 230.237 43.9418 230.142C44.3395 230.047 44.7448 229.975 45.1577 229.926C45.6804 229.866 46.1046 229.816 46.4304 229.778C46.7562 229.737 46.9929 229.67 47.1406 229.58C47.2884 229.489 47.3622 229.341 47.3622 229.136V229.097C47.3622 228.6 47.2221 228.216 46.9418 227.943C46.6652 227.67 46.2524 227.534 45.7031 227.534C45.1312 227.534 44.6804 227.661 44.3509 227.915C44.0251 228.165 43.7997 228.443 43.6747 228.75L42.0781 228.386C42.2675 227.856 42.544 227.428 42.9077 227.102C43.2751 226.773 43.6974 226.534 44.1747 226.386C44.652 226.235 45.1539 226.159 45.6804 226.159C46.0289 226.159 46.3982 226.201 46.7884 226.284C47.1823 226.364 47.5497 226.511 47.8906 226.727C48.2353 226.943 48.5175 227.252 48.7372 227.653C48.9569 228.051 49.0668 228.568 49.0668 229.205V235H47.4077V233.807H47.3395C47.2296 234.027 47.0649 234.242 46.8452 234.455C46.6255 234.667 46.3433 234.843 45.9986 234.983C45.6539 235.123 45.241 235.193 44.7599 235.193ZM45.1293 233.83C45.599 233.83 46.0005 233.737 46.3338 233.551C46.6709 233.366 46.9266 233.123 47.1009 232.824C47.2789 232.521 47.3679 232.197 47.3679 231.852V230.727C47.3073 230.788 47.1899 230.845 47.0156 230.898C46.8452 230.947 46.6501 230.991 46.4304 231.028C46.2107 231.062 45.9967 231.095 45.7884 231.125C45.58 231.152 45.4058 231.174 45.2656 231.193C44.9361 231.235 44.6349 231.305 44.3622 231.403C44.0933 231.502 43.8774 231.644 43.7145 231.83C43.5554 232.011 43.4759 232.254 43.4759 232.557C43.4759 232.977 43.6312 233.295 43.9418 233.511C44.2524 233.723 44.6482 233.83 45.1293 233.83ZM54.9886 238.455C54.2955 238.455 53.6989 238.364 53.1989 238.182C52.7027 238 52.2973 237.759 51.983 237.46C51.6686 237.161 51.4337 236.833 51.2784 236.477L52.7386 235.875C52.8409 236.042 52.9773 236.218 53.1477 236.403C53.322 236.593 53.5568 236.754 53.8523 236.886C54.1515 237.019 54.536 237.085 55.0057 237.085C55.6496 237.085 56.1818 236.928 56.6023 236.614C57.0227 236.303 57.233 235.807 57.233 235.125V233.409H57.125C57.0227 233.595 56.875 233.801 56.6818 234.028C56.4924 234.256 56.2311 234.453 55.8977 234.619C55.5644 234.786 55.1307 234.869 54.5966 234.869C53.9072 234.869 53.286 234.708 52.733 234.386C52.1837 234.061 51.7481 233.581 51.4261 232.949C51.108 232.312 50.9489 231.53 50.9489 230.602C50.9489 229.674 51.1061 228.879 51.4205 228.216C51.7386 227.553 52.1742 227.045 52.7273 226.693C53.2803 226.337 53.9072 226.159 54.608 226.159C55.1496 226.159 55.5871 226.25 55.9205 226.432C56.2538 226.61 56.5133 226.818 56.6989 227.057C56.8883 227.295 57.0341 227.506 57.1364 227.688H57.2614V226.273H58.9261V235.193C58.9261 235.943 58.7519 236.559 58.4034 237.04C58.0549 237.521 57.5833 237.877 56.9886 238.108C56.3977 238.339 55.7311 238.455 54.9886 238.455ZM54.9716 233.46C55.4602 233.46 55.8731 233.347 56.2102 233.119C56.5511 232.888 56.8087 232.559 56.983 232.131C57.161 231.699 57.25 231.182 57.25 230.58C57.25 229.992 57.1629 229.475 56.9886 229.028C56.8144 228.581 56.5587 228.233 56.2216 227.983C55.8845 227.729 55.4678 227.602 54.9716 227.602C54.4602 227.602 54.0341 227.735 53.6932 228C53.3523 228.261 53.0947 228.617 52.9205 229.068C52.75 229.519 52.6648 230.023 52.6648 230.58C52.6648 231.152 52.7519 231.653 52.9261 232.085C53.1004 232.517 53.358 232.854 53.6989 233.097C54.0436 233.339 54.4678 233.46 54.9716 233.46ZM63.7443 235.193C63.1913 235.193 62.6913 235.091 62.2443 234.886C61.7973 234.678 61.4432 234.377 61.1818 233.983C60.9242 233.589 60.7955 233.106 60.7955 232.534C60.7955 232.042 60.8902 231.636 61.0795 231.318C61.2689 231 61.5246 230.748 61.8466 230.562C62.1686 230.377 62.5284 230.237 62.9261 230.142C63.3239 230.047 63.7292 229.975 64.142 229.926C64.6648 229.866 65.089 229.816 65.4148 229.778C65.7405 229.737 65.9773 229.67 66.125 229.58C66.2727 229.489 66.3466 229.341 66.3466 229.136V229.097C66.3466 228.6 66.2064 228.216 65.9261 227.943C65.6496 227.67 65.2367 227.534 64.6875 227.534C64.1155 227.534 63.6648 227.661 63.3352 227.915C63.0095 228.165 62.7841 228.443 62.6591 228.75L61.0625 228.386C61.2519 227.856 61.5284 227.428 61.892 227.102C62.2595 226.773 62.6818 226.534 63.1591 226.386C63.6364 226.235 64.1383 226.159 64.6648 226.159C65.0133 226.159 65.3826 226.201 65.7727 226.284C66.1667 226.364 66.5341 226.511 66.875 226.727C67.2197 226.943 67.5019 227.252 67.7216 227.653C67.9413 228.051 68.0511 228.568 68.0511 229.205V235H66.392V233.807H66.3239C66.214 234.027 66.0492 234.242 65.8295 234.455C65.6098 234.667 65.3277 234.843 64.983 234.983C64.6383 235.123 64.2254 235.193 63.7443 235.193ZM64.1136 233.83C64.5833 233.83 64.9848 233.737 65.3182 233.551C65.6553 233.366 65.911 233.123 66.0852 232.824C66.2633 232.521 66.3523 232.197 66.3523 231.852V230.727C66.2917 230.788 66.1742 230.845 66 230.898C65.8295 230.947 65.6345 230.991 65.4148 231.028C65.1951 231.062 64.9811 231.095 64.7727 231.125C64.5644 231.152 64.3902 231.174 64.25 231.193C63.9205 231.235 63.6193 231.305 63.3466 231.403C63.0777 231.502 62.8617 231.644 62.6989 231.83C62.5398 232.011 62.4602 232.254 62.4602 232.557C62.4602 232.977 62.6155 233.295 62.9261 233.511C63.2367 233.723 63.6326 233.83 64.1136 233.83Z" fill="#F2F2F2"/>
<path d="M10.6705 263.364V275H9.05682L3.14205 266.466H3.03409V275H1.27841V263.364H2.90341L8.82386 271.909H8.93182V263.364H10.6705ZM15.6349 275.193C15.0819 275.193 14.5819 275.091 14.1349 274.886C13.688 274.678 13.3338 274.377 13.0724 273.983C12.8149 273.589 12.6861 273.106 12.6861 272.534C12.6861 272.042 12.7808 271.636 12.9702 271.318C13.1596 271 13.4152 270.748 13.7372 270.562C14.0592 270.377 14.419 270.237 14.8168 270.142C15.2145 270.047 15.6198 269.975 16.0327 269.926C16.5554 269.866 16.9796 269.816 17.3054 269.778C17.6312 269.737 17.8679 269.67 18.0156 269.58C18.1634 269.489 18.2372 269.341 18.2372 269.136V269.097C18.2372 268.6 18.0971 268.216 17.8168 267.943C17.5402 267.67 17.1274 267.534 16.5781 267.534C16.0062 267.534 15.5554 267.661 15.2259 267.915C14.9001 268.165 14.6747 268.443 14.5497 268.75L12.9531 268.386C13.1425 267.856 13.419 267.428 13.7827 267.102C14.1501 266.773 14.5724 266.534 15.0497 266.386C15.527 266.235 16.0289 266.159 16.5554 266.159C16.9039 266.159 17.2732 266.201 17.6634 266.284C18.0573 266.364 18.4247 266.511 18.7656 266.727C19.1103 266.943 19.3925 267.252 19.6122 267.653C19.8319 268.051 19.9418 268.568 19.9418 269.205V275H18.2827V273.807H18.2145C18.1046 274.027 17.9399 274.242 17.7202 274.455C17.5005 274.667 17.2183 274.843 16.8736 274.983C16.5289 275.123 16.116 275.193 15.6349 275.193ZM16.0043 273.83C16.474 273.83 16.8755 273.737 17.2088 273.551C17.5459 273.366 17.8016 273.123 17.9759 272.824C18.1539 272.521 18.2429 272.197 18.2429 271.852V270.727C18.1823 270.788 18.0649 270.845 17.8906 270.898C17.7202 270.947 17.5251 270.991 17.3054 271.028C17.0857 271.062 16.8717 271.095 16.6634 271.125C16.455 271.152 16.2808 271.174 16.1406 271.193C15.8111 271.235 15.5099 271.305 15.2372 271.403C14.9683 271.502 14.7524 271.644 14.5895 271.83C14.4304 272.011 14.3509 272.254 14.3509 272.557C14.3509 272.977 14.5062 273.295 14.8168 273.511C15.1274 273.723 15.5232 273.83 16.0043 273.83ZM28.7443 268.403L27.2045 268.676C27.1402 268.479 27.0379 268.292 26.8977 268.114C26.7614 267.936 26.5758 267.79 26.3409 267.676C26.1061 267.562 25.8125 267.506 25.4602 267.506C24.9792 267.506 24.5777 267.614 24.2557 267.83C23.9337 268.042 23.7727 268.316 23.7727 268.653C23.7727 268.945 23.8807 269.18 24.0966 269.358C24.3125 269.536 24.661 269.682 25.142 269.795L26.5284 270.114C27.3314 270.299 27.9299 270.585 28.3239 270.972C28.7178 271.358 28.9148 271.86 28.9148 272.477C28.9148 273 28.7633 273.466 28.4602 273.875C28.161 274.28 27.7424 274.598 27.2045 274.83C26.6705 275.061 26.0511 275.176 25.3466 275.176C24.3693 275.176 23.572 274.968 22.9545 274.551C22.3371 274.131 21.9583 273.534 21.8182 272.761L23.4602 272.511C23.5625 272.939 23.7727 273.263 24.0909 273.483C24.4091 273.699 24.8239 273.807 25.3352 273.807C25.892 273.807 26.3371 273.691 26.6705 273.46C27.0038 273.225 27.1705 272.939 27.1705 272.602C27.1705 272.33 27.0682 272.1 26.8636 271.915C26.6629 271.729 26.3542 271.589 25.9375 271.494L24.4602 271.17C23.6458 270.985 23.0436 270.689 22.6534 270.284C22.267 269.879 22.0739 269.366 22.0739 268.744C22.0739 268.229 22.2178 267.778 22.5057 267.392C22.7936 267.006 23.1913 266.705 23.6989 266.489C24.2064 266.269 24.7879 266.159 25.4432 266.159C26.3864 266.159 27.1288 266.364 27.6705 266.773C28.2121 267.178 28.5701 267.722 28.7443 268.403ZM30.7827 275V266.273H32.4815V275H30.7827ZM31.6406 264.926C31.3452 264.926 31.0914 264.828 30.8793 264.631C30.6709 264.43 30.5668 264.191 30.5668 263.915C30.5668 263.634 30.6709 263.396 30.8793 263.199C31.0914 262.998 31.3452 262.898 31.6406 262.898C31.9361 262.898 32.188 262.998 32.3963 263.199C32.6084 263.396 32.7145 263.634 32.7145 263.915C32.7145 264.191 32.6084 264.43 32.3963 264.631C32.188 264.828 31.9361 264.926 31.6406 264.926ZM38.4432 275.176C37.625 275.176 36.911 274.989 36.3011 274.614C35.6913 274.239 35.2178 273.714 34.8807 273.04C34.5436 272.366 34.375 271.578 34.375 270.676C34.375 269.771 34.5436 268.979 34.8807 268.301C35.2178 267.623 35.6913 267.097 36.3011 266.722C36.911 266.347 37.625 266.159 38.4432 266.159C39.2614 266.159 39.9754 266.347 40.5852 266.722C41.1951 267.097 41.6686 267.623 42.0057 268.301C42.3428 268.979 42.5114 269.771 42.5114 270.676C42.5114 271.578 42.3428 272.366 42.0057 273.04C41.6686 273.714 41.1951 274.239 40.5852 274.614C39.9754 274.989 39.2614 275.176 38.4432 275.176ZM38.4489 273.75C38.9792 273.75 39.4186 273.61 39.767 273.33C40.1155 273.049 40.3731 272.676 40.5398 272.21C40.7102 271.744 40.7955 271.231 40.7955 270.67C40.7955 270.114 40.7102 269.602 40.5398 269.136C40.3731 268.667 40.1155 268.29 39.767 268.006C39.4186 267.722 38.9792 267.58 38.4489 267.58C37.9148 267.58 37.4716 267.722 37.1193 268.006C36.7708 268.29 36.5114 268.667 36.3409 269.136C36.1742 269.602 36.0909 270.114 36.0909 270.67C36.0909 271.231 36.1742 271.744 36.3409 272.21C36.5114 272.676 36.7708 273.049 37.1193 273.33C37.4716 273.61 37.9148 273.75 38.4489 273.75ZM46.1065 269.818V275H44.4077V266.273H46.0384V267.693H46.1463C46.3471 267.231 46.6615 266.86 47.0895 266.58C47.5213 266.299 48.0649 266.159 48.7202 266.159C49.3149 266.159 49.8357 266.284 50.2827 266.534C50.7296 266.78 51.0762 267.148 51.3224 267.636C51.5687 268.125 51.6918 268.729 51.6918 269.449V275H49.9929V269.653C49.9929 269.021 49.8281 268.527 49.4986 268.17C49.169 267.811 48.7164 267.631 48.1406 267.631C47.7467 267.631 47.3963 267.716 47.0895 267.886C46.7865 268.057 46.5459 268.307 46.3679 268.636C46.1937 268.962 46.1065 269.356 46.1065 269.818ZM56.5099 275.193C55.9569 275.193 55.4569 275.091 55.0099 274.886C54.563 274.678 54.2088 274.377 53.9474 273.983C53.6899 273.589 53.5611 273.106 53.5611 272.534C53.5611 272.042 53.6558 271.636 53.8452 271.318C54.0346 271 54.2902 270.748 54.6122 270.562C54.9342 270.377 55.294 270.237 55.6918 270.142C56.0895 270.047 56.4948 269.975 56.9077 269.926C57.4304 269.866 57.8546 269.816 58.1804 269.778C58.5062 269.737 58.7429 269.67 58.8906 269.58C59.0384 269.489 59.1122 269.341 59.1122 269.136V269.097C59.1122 268.6 58.9721 268.216 58.6918 267.943C58.4152 267.67 58.0024 267.534 57.4531 267.534C56.8812 267.534 56.4304 267.661 56.1009 267.915C55.7751 268.165 55.5497 268.443 55.4247 268.75L53.8281 268.386C54.0175 267.856 54.294 267.428 54.6577 267.102C55.0251 266.773 55.4474 266.534 55.9247 266.386C56.402 266.235 56.9039 266.159 57.4304 266.159C57.7789 266.159 58.1482 266.201 58.5384 266.284C58.9323 266.364 59.2997 266.511 59.6406 266.727C59.9853 266.943 60.2675 267.252 60.4872 267.653C60.7069 268.051 60.8168 268.568 60.8168 269.205V275H59.1577V273.807H59.0895C58.9796 274.027 58.8149 274.242 58.5952 274.455C58.3755 274.667 58.0933 274.843 57.7486 274.983C57.4039 275.123 56.991 275.193 56.5099 275.193ZM56.8793 273.83C57.349 273.83 57.7505 273.737 58.0838 273.551C58.4209 273.366 58.6766 273.123 58.8509 272.824C59.0289 272.521 59.1179 272.197 59.1179 271.852V270.727C59.0573 270.788 58.9399 270.845 58.7656 270.898C58.5952 270.947 58.4001 270.991 58.1804 271.028C57.9607 271.062 57.7467 271.095 57.5384 271.125C57.33 271.152 57.1558 271.174 57.0156 271.193C56.6861 271.235 56.3849 271.305 56.1122 271.403C55.8433 271.502 55.6274 271.644 55.4645 271.83C55.3054 272.011 55.2259 272.254 55.2259 272.557C55.2259 272.977 55.3812 273.295 55.6918 273.511C56.0024 273.723 56.3982 273.83 56.8793 273.83ZM64.7784 263.364V275H63.0795V263.364H64.7784Z" fill="#F2F2F2"/>
<path d="M3.03409 303.364V315H1.27841V303.364H3.03409ZM7.15341 309.818V315H5.45455V306.273H7.08523V307.693H7.19318C7.39394 307.231 7.70833 306.86 8.13636 306.58C8.56818 306.299 9.11174 306.159 9.76705 306.159C10.3617 306.159 10.8826 306.284 11.3295 306.534C11.7765 306.78 12.1231 307.148 12.3693 307.636C12.6155 308.125 12.7386 308.729 12.7386 309.449V315H11.0398V309.653C11.0398 309.021 10.875 308.527 10.5455 308.17C10.2159 307.811 9.76326 307.631 9.1875 307.631C8.79356 307.631 8.44318 307.716 8.13636 307.886C7.83333 308.057 7.5928 308.307 7.41477 308.636C7.24053 308.962 7.15341 309.356 7.15341 309.818ZM19.0909 306.273V307.636H14.3239V306.273H19.0909ZM15.6023 304.182H17.3011V312.438C17.3011 312.767 17.3504 313.015 17.4489 313.182C17.5473 313.345 17.6742 313.456 17.8295 313.517C17.9886 313.574 18.161 313.602 18.3466 313.602C18.483 313.602 18.6023 313.593 18.7045 313.574C18.8068 313.555 18.8864 313.54 18.9432 313.528L19.25 314.932C19.1515 314.97 19.0114 315.008 18.8295 315.045C18.6477 315.087 18.4205 315.11 18.1477 315.114C17.7008 315.121 17.2841 315.042 16.8977 314.875C16.5114 314.708 16.1989 314.451 15.9602 314.102C15.7216 313.754 15.6023 313.316 15.6023 312.79V304.182ZM24.6378 315.176C23.7779 315.176 23.0374 314.992 22.4162 314.625C21.7988 314.254 21.3215 313.733 20.9844 313.062C20.651 312.388 20.4844 311.598 20.4844 310.693C20.4844 309.799 20.651 309.011 20.9844 308.33C21.3215 307.648 21.7912 307.116 22.3935 306.733C22.9995 306.35 23.7079 306.159 24.5185 306.159C25.0109 306.159 25.4882 306.241 25.9503 306.403C26.4124 306.566 26.8272 306.822 27.1946 307.17C27.562 307.519 27.8518 307.972 28.0639 308.528C28.276 309.081 28.3821 309.754 28.3821 310.545V311.148H21.4446V309.875H26.7173C26.7173 309.428 26.6264 309.032 26.4446 308.688C26.2628 308.339 26.0071 308.064 25.6776 307.864C25.3518 307.663 24.9692 307.562 24.5298 307.562C24.0526 307.562 23.6359 307.68 23.2798 307.915C22.9276 308.146 22.6548 308.449 22.4616 308.824C22.2723 309.195 22.1776 309.598 22.1776 310.034V311.028C22.1776 311.612 22.2798 312.108 22.4844 312.517C22.6927 312.926 22.9825 313.239 23.3537 313.455C23.7249 313.667 24.1586 313.773 24.6548 313.773C24.9768 313.773 25.2704 313.727 25.5355 313.636C25.8007 313.542 26.0298 313.402 26.223 313.216C26.4162 313.03 26.5639 312.801 26.6662 312.528L28.2741 312.818C28.1454 313.292 27.9143 313.706 27.581 314.062C27.2514 314.415 26.8366 314.689 26.3366 314.886C25.8404 315.08 25.2741 315.176 24.6378 315.176ZM30.267 315V306.273H31.9091V307.659H32C32.1591 307.189 32.4394 306.82 32.8409 306.551C33.2462 306.278 33.7045 306.142 34.2159 306.142C34.322 306.142 34.447 306.146 34.5909 306.153C34.7386 306.161 34.8542 306.17 34.9375 306.182V307.807C34.8693 307.788 34.7481 307.767 34.5739 307.744C34.3996 307.718 34.2254 307.705 34.0511 307.705C33.6496 307.705 33.2917 307.79 32.9773 307.96C32.6667 308.127 32.4205 308.36 32.2386 308.659C32.0568 308.955 31.9659 309.292 31.9659 309.67V315H30.267ZM38.1065 309.818V315H36.4077V306.273H38.0384V307.693H38.1463C38.3471 307.231 38.6615 306.86 39.0895 306.58C39.5213 306.299 40.0649 306.159 40.7202 306.159C41.3149 306.159 41.8357 306.284 42.2827 306.534C42.7296 306.78 43.0762 307.148 43.3224 307.636C43.5687 308.125 43.6918 308.729 43.6918 309.449V315H41.9929V309.653C41.9929 309.021 41.8281 308.527 41.4986 308.17C41.169 307.811 40.7164 307.631 40.1406 307.631C39.7467 307.631 39.3963 307.716 39.0895 307.886C38.7865 308.057 38.5459 308.307 38.3679 308.636C38.1937 308.962 38.1065 309.356 38.1065 309.818ZM48.5099 315.193C47.9569 315.193 47.4569 315.091 47.0099 314.886C46.563 314.678 46.2088 314.377 45.9474 313.983C45.6899 313.589 45.5611 313.106 45.5611 312.534C45.5611 312.042 45.6558 311.636 45.8452 311.318C46.0346 311 46.2902 310.748 46.6122 310.562C46.9342 310.377 47.294 310.237 47.6918 310.142C48.0895 310.047 48.4948 309.975 48.9077 309.926C49.4304 309.866 49.8546 309.816 50.1804 309.778C50.5062 309.737 50.7429 309.67 50.8906 309.58C51.0384 309.489 51.1122 309.341 51.1122 309.136V309.097C51.1122 308.6 50.9721 308.216 50.6918 307.943C50.4152 307.67 50.0024 307.534 49.4531 307.534C48.8812 307.534 48.4304 307.661 48.1009 307.915C47.7751 308.165 47.5497 308.443 47.4247 308.75L45.8281 308.386C46.0175 307.856 46.294 307.428 46.6577 307.102C47.0251 306.773 47.4474 306.534 47.9247 306.386C48.402 306.235 48.9039 306.159 49.4304 306.159C49.7789 306.159 50.1482 306.201 50.5384 306.284C50.9323 306.364 51.2997 306.511 51.6406 306.727C51.9853 306.943 52.2675 307.252 52.4872 307.653C52.7069 308.051 52.8168 308.568 52.8168 309.205V315H51.1577V313.807H51.0895C50.9796 314.027 50.8149 314.242 50.5952 314.455C50.3755 314.667 50.0933 314.843 49.7486 314.983C49.4039 315.123 48.991 315.193 48.5099 315.193ZM48.8793 313.83C49.349 313.83 49.7505 313.737 50.0838 313.551C50.4209 313.366 50.6766 313.123 50.8509 312.824C51.0289 312.521 51.1179 312.197 51.1179 311.852V310.727C51.0573 310.788 50.9399 310.845 50.7656 310.898C50.5952 310.947 50.4001 310.991 50.1804 311.028C49.9607 311.062 49.7467 311.095 49.5384 311.125C49.33 311.152 49.1558 311.174 49.0156 311.193C48.6861 311.235 48.3849 311.305 48.1122 311.403C47.8433 311.502 47.6274 311.644 47.4645 311.83C47.3054 312.011 47.2259 312.254 47.2259 312.557C47.2259 312.977 47.3812 313.295 47.6918 313.511C48.0024 313.723 48.3982 313.83 48.8793 313.83ZM61.6193 308.403L60.0795 308.676C60.0152 308.479 59.9129 308.292 59.7727 308.114C59.6364 307.936 59.4508 307.79 59.2159 307.676C58.9811 307.562 58.6875 307.506 58.3352 307.506C57.8542 307.506 57.4527 307.614 57.1307 307.83C56.8087 308.042 56.6477 308.316 56.6477 308.653C56.6477 308.945 56.7557 309.18 56.9716 309.358C57.1875 309.536 57.536 309.682 58.017 309.795L59.4034 310.114C60.2064 310.299 60.8049 310.585 61.1989 310.972C61.5928 311.358 61.7898 311.86 61.7898 312.477C61.7898 313 61.6383 313.466 61.3352 313.875C61.036 314.28 60.6174 314.598 60.0795 314.83C59.5455 315.061 58.9261 315.176 58.2216 315.176C57.2443 315.176 56.447 314.968 55.8295 314.551C55.2121 314.131 54.8333 313.534 54.6932 312.761L56.3352 312.511C56.4375 312.939 56.6477 313.263 56.9659 313.483C57.2841 313.699 57.6989 313.807 58.2102 313.807C58.767 313.807 59.2121 313.691 59.5455 313.46C59.8788 313.225 60.0455 312.939 60.0455 312.602C60.0455 312.33 59.9432 312.1 59.7386 311.915C59.5379 311.729 59.2292 311.589 58.8125 311.494L57.3352 311.17C56.5208 310.985 55.9186 310.689 55.5284 310.284C55.142 309.879 54.9489 309.366 54.9489 308.744C54.9489 308.229 55.0928 307.778 55.3807 307.392C55.6686 307.006 56.0663 306.705 56.5739 306.489C57.0814 306.269 57.6629 306.159 58.3182 306.159C59.2614 306.159 60.0038 306.364 60.5455 306.773C61.0871 307.178 61.4451 307.722 61.6193 308.403ZM63.6577 315V306.273H65.3565V315H63.6577ZM64.5156 304.926C64.2202 304.926 63.9664 304.828 63.7543 304.631C63.5459 304.43 63.4418 304.191 63.4418 303.915C63.4418 303.634 63.5459 303.396 63.7543 303.199C63.9664 302.998 64.2202 302.898 64.5156 302.898C64.8111 302.898 65.063 302.998 65.2713 303.199C65.4834 303.396 65.5895 303.634 65.5895 303.915C65.5895 304.191 65.4834 304.43 65.2713 304.631C65.063 304.828 64.8111 304.926 64.5156 304.926ZM71.3182 315.176C70.5 315.176 69.786 314.989 69.1761 314.614C68.5663 314.239 68.0928 313.714 67.7557 313.04C67.4186 312.366 67.25 311.578 67.25 310.676C67.25 309.771 67.4186 308.979 67.7557 308.301C68.0928 307.623 68.5663 307.097 69.1761 306.722C69.786 306.347 70.5 306.159 71.3182 306.159C72.1364 306.159 72.8504 306.347 73.4602 306.722C74.0701 307.097 74.5436 307.623 74.8807 308.301C75.2178 308.979 75.3864 309.771 75.3864 310.676C75.3864 311.578 75.2178 312.366 74.8807 313.04C74.5436 313.714 74.0701 314.239 73.4602 314.614C72.8504 314.989 72.1364 315.176 71.3182 315.176ZM71.3239 313.75C71.8542 313.75 72.2936 313.61 72.642 313.33C72.9905 313.049 73.2481 312.676 73.4148 312.21C73.5852 311.744 73.6705 311.231 73.6705 310.67C73.6705 310.114 73.5852 309.602 73.4148 309.136C73.2481 308.667 72.9905 308.29 72.642 308.006C72.2936 307.722 71.8542 307.58 71.3239 307.58C70.7898 307.58 70.3466 307.722 69.9943 308.006C69.6458 308.29 69.3864 308.667 69.2159 309.136C69.0492 309.602 68.9659 310.114 68.9659 310.67C68.9659 311.231 69.0492 311.744 69.2159 312.21C69.3864 312.676 69.6458 313.049 69.9943 313.33C70.3466 313.61 70.7898 313.75 71.3239 313.75ZM78.9815 309.818V315H77.2827V306.273H78.9134V307.693H79.0213C79.2221 307.231 79.5365 306.86 79.9645 306.58C80.3963 306.299 80.9399 306.159 81.5952 306.159C82.1899 306.159 82.7107 306.284 83.1577 306.534C83.6046 306.78 83.9512 307.148 84.1974 307.636C84.4437 308.125 84.5668 308.729 84.5668 309.449V315H82.8679V309.653C82.8679 309.021 82.7031 308.527 82.3736 308.17C82.044 307.811 81.5914 307.631 81.0156 307.631C80.6217 307.631 80.2713 307.716 79.9645 307.886C79.6615 308.057 79.4209 308.307 79.2429 308.636C79.0687 308.962 78.9815 309.356 78.9815 309.818ZM89.3849 315.193C88.8319 315.193 88.3319 315.091 87.8849 314.886C87.438 314.678 87.0838 314.377 86.8224 313.983C86.5649 313.589 86.4361 313.106 86.4361 312.534C86.4361 312.042 86.5308 311.636 86.7202 311.318C86.9096 311 87.1652 310.748 87.4872 310.562C87.8092 310.377 88.169 310.237 88.5668 310.142C88.9645 310.047 89.3698 309.975 89.7827 309.926C90.3054 309.866 90.7296 309.816 91.0554 309.778C91.3812 309.737 91.6179 309.67 91.7656 309.58C91.9134 309.489 91.9872 309.341 91.9872 309.136V309.097C91.9872 308.6 91.8471 308.216 91.5668 307.943C91.2902 307.67 90.8774 307.534 90.3281 307.534C89.7562 307.534 89.3054 307.661 88.9759 307.915C88.6501 308.165 88.4247 308.443 88.2997 308.75L86.7031 308.386C86.8925 307.856 87.169 307.428 87.5327 307.102C87.9001 306.773 88.3224 306.534 88.7997 306.386C89.277 306.235 89.7789 306.159 90.3054 306.159C90.6539 306.159 91.0232 306.201 91.4134 306.284C91.8073 306.364 92.1747 306.511 92.5156 306.727C92.8603 306.943 93.1425 307.252 93.3622 307.653C93.5819 308.051 93.6918 308.568 93.6918 309.205V315H92.0327V313.807H91.9645C91.8546 314.027 91.6899 314.242 91.4702 314.455C91.2505 314.667 90.9683 314.843 90.6236 314.983C90.2789 315.123 89.866 315.193 89.3849 315.193ZM89.7543 313.83C90.224 313.83 90.6255 313.737 90.9588 313.551C91.2959 313.366 91.5516 313.123 91.7259 312.824C91.9039 312.521 91.9929 312.197 91.9929 311.852V310.727C91.9323 310.788 91.8149 310.845 91.6406 310.898C91.4702 310.947 91.2751 310.991 91.0554 311.028C90.8357 311.062 90.6217 311.095 90.4134 311.125C90.205 311.152 90.0308 311.174 89.8906 311.193C89.5611 311.235 89.2599 311.305 88.9872 311.403C88.7183 311.502 88.5024 311.644 88.3395 311.83C88.1804 312.011 88.1009 312.254 88.1009 312.557C88.1009 312.977 88.2562 313.295 88.5668 313.511C88.8774 313.723 89.2732 313.83 89.7543 313.83ZM97.6534 303.364V315H95.9545V303.364H97.6534Z" fill="#F2F2F2"/>
</svg>
